<?xml version="1.0" encoding="UTF-8"?>
<svg version="1.1" xmlns="http://www.w3.org/2000/svg" width="790" height="791">
<path d="M0 0 C260.7 0 521.4 0 790 0 C790 261.03 790 522.06 790 791 C529.3 791 268.6 791 0 791 C0 529.97 0 268.94 0 0 Z " fill="#1A5E5D" transform="translate(0,0)"/>
<path d="M0 0 C260.7 0 521.4 0 790 0 C790 261.03 790 522.06 790 791 C529.3 791 268.6 791 0 791 C0 529.97 0 268.94 0 0 Z M346 63 C345.19369141 63.10683105 344.38738281 63.21366211 343.55664062 63.32373047 C338.65753026 64.00615458 333.83155115 64.95363483 329 66 C327.9284668 66.22671387 326.85693359 66.45342773 325.75292969 66.68701172 C308.74770735 70.32511529 292.21740237 74.63610534 276 81 C274.97487305 81.40202637 273.94974609 81.80405273 272.89355469 82.21826172 C250.1053268 91.27885005 228.19173141 102.03016784 208 116 C206.94159912 116.72485596 206.94159912 116.72485596 205.86181641 117.46435547 C191.13713879 127.57133209 177.49285313 138.25231796 164.59375 150.6171875 C162.36898326 152.74318086 160.11286729 154.77516042 157.73046875 156.72265625 C155.49704774 158.585438 153.66472601 160.34280824 151.8125 162.5625 C149.32454132 165.48790197 146.77329554 168.32991976 144.14575195 171.13085938 C127.92982651 188.48987 114.51418798 208.26307012 103 229 C102.54302734 229.81291504 102.08605469 230.62583008 101.61523438 231.46337891 C86.88758026 257.86454236 76.50971689 285.77637453 69 315 C68.76458496 315.90991699 68.52916992 316.81983398 68.28662109 317.75732422 C64.71620287 331.94036679 63.3874512 346.46976695 62 361 C61.90211182 361.88751953 61.80422363 362.77503906 61.70336914 363.68945312 C60.73451237 373.2933215 60.81392352 382.92737996 60.81469727 392.56982422 C60.8125198 395.59747579 60.79433457 398.62475673 60.77539062 401.65234375 C60.7393627 413.57716175 61.29004247 425.19646663 63 437 C63.10512909 437.72999207 63.21025818 438.45998413 63.318573 439.21209717 C64.08572662 444.44406058 64.93195024 449.66103991 65.8125 454.875 C65.94383331 455.65648407 66.07516663 456.43796814 66.21047974 457.24313354 C69.27405361 475.36210347 73.3890549 492.44234743 80.07617188 509.5859375 C81.00124913 512.00326412 81.87347061 514.43415144 82.734375 516.875 C89.9142385 536.9524239 99.2564064 556.72443613 111.68554688 574.09765625 C113.20550127 576.29741194 114.62755263 578.54653328 116.046875 580.8125 C122.50880681 591.10726823 129.37331213 600.38419175 137.546875 609.37304688 C139.70043645 611.78422522 141.72390905 614.29395638 143.75 616.8125 C153.79191407 629.16897503 164.82585616 640.72599476 177 651 C177.90621094 651.79535156 178.81242187 652.59070313 179.74609375 653.41015625 C194.06539287 665.9017037 209.6310089 676.39799154 226 686 C226.62358398 686.36963867 227.24716797 686.73927734 227.88964844 687.12011719 C250.02588813 700.22312868 273.02407158 710.38777626 297.85595703 717.13964844 C301.11753345 718.03216244 304.36972188 718.95384911 307.62109375 719.8828125 C309.80977681 720.50562677 311.99857573 721.12803403 314.1875 721.75 C315.17782227 722.03182129 316.16814453 722.31364258 317.18847656 722.60400391 C366.43216776 736.41103149 423.11506089 736.79608005 472.6171875 723.61474609 C474.98530146 723.0037921 477.35906184 722.47070937 479.75 721.95703125 C529.56461255 710.97456189 578.81492722 683.5150543 615.95703125 648.828125 C620.20391047 644.86524356 624.57044552 641.04346249 629.015625 637.3046875 C633.09349991 633.8338245 636.70711755 630.23036686 640.16796875 626.14453125 C642.14128287 623.83461771 644.19139337 621.60911838 646.25 619.375 C681.01294472 580.72989902 704.76000532 533.69546182 719 484 C719.26611084 483.09064697 719.53222168 482.18129395 719.80639648 481.24438477 C721.81907407 474.17290314 723.29774961 467.0234889 724.67993164 459.80444336 C725.05891585 457.83116183 725.44835521 455.85989768 725.83789062 453.88867188 C726.61079543 449.93397304 727.31680125 445.97126184 728 442 C728.20375244 440.81937988 728.40750488 439.63875977 728.61743164 438.42236328 C730.41650449 426.32301581 730.337305 414.18922346 730.31567383 401.97802734 C730.31254158 398.29884392 730.33594664 394.62048926 730.36132812 390.94140625 C730.56585007 314.94848114 704.03308342 235.17622692 652.2734375 178.55859375 C649.98251524 175.98032213 647.83332958 173.324717 645.6875 170.625 C638.91827153 162.26997325 631.22305733 154.7093687 623.02734375 147.75390625 C620.62092919 145.67205627 618.32123642 143.48887471 616 141.3125 C600.18600476 126.93219114 581.76410604 114.26561829 562.99121094 104.09570312 C560.70768953 102.83915039 558.4527525 101.53718497 556.1953125 100.234375 C541.97037122 92.12484135 527.28405807 85.83478406 512 80 C510.75645752 79.51660156 510.75645752 79.51660156 509.48779297 79.0234375 C499.53789521 75.174381 489.47632143 72.50609227 479.0703125 70.17578125 C475.54227494 69.38373785 472.07184728 68.47230858 468.59375 67.484375 C429.71057679 56.74114883 385.69988719 57.66861567 346 63 Z " fill="#1A5E5D" transform="translate(0,0)"/>
<path d="M0 0 C16.44732784 -0.04688211 32.89463374 -0.08206783 49.34201241 -0.10362434 C56.98014699 -0.1139029 64.61823986 -0.12789717 72.25634766 -0.15087891 C78.91974635 -0.17091822 85.58311482 -0.18374124 92.24654281 -0.18817699 C95.76930035 -0.19076667 99.29197146 -0.19678068 102.81470108 -0.21146011 C106.76336441 -0.22777841 110.71194597 -0.227973 114.66064453 -0.22705078 C115.8072052 -0.23424133 116.95376587 -0.24143188 118.1350708 -0.24884033 C137.87739651 -0.19932809 156.82437341 4.05884666 171.8125 17.52734375 C182.24470139 28.66303241 184.69849351 40.11873469 184.37890625 55.02734375 C183.86331977 64.82718285 179.38428663 72.75084695 173 80 C172.47664062 80.60457031 171.95328125 81.20914063 171.4140625 81.83203125 C159.60443775 94.55648608 141.52186416 99.01506733 125 102 C125.54527344 102.21914063 126.09054687 102.43828125 126.65234375 102.6640625 C148.69003354 111.93119359 159.46341834 132.87751833 171.77709961 152.25195312 C176.61621943 159.85998723 181.51773361 167.422366 186.5 174.9375 C187.13389648 175.90115479 187.76779297 176.86480957 188.42089844 177.85766602 C196.34549677 189.76224306 203.95708563 200.31902854 218 205 C221.79252787 205.25197243 221.79252787 205.25197243 225 205 C224.28714844 204.50371094 223.57429687 204.00742187 222.83984375 203.49609375 C221.88207031 202.81675781 220.92429687 202.13742187 219.9375 201.4375 C218.52791016 200.44556641 218.52791016 200.44556641 217.08984375 199.43359375 C209.84800775 193.72984681 204.86603578 187.27940917 199.875 179.5625 C199.28074219 178.65951172 198.68648437 177.75652344 198.07421875 176.82617188 C196.36859733 174.22632288 194.68026379 171.61629417 193 169 C192.50274414 168.22897949 192.00548828 167.45795898 191.49316406 166.66357422 C191.04424805 165.95861816 190.59533203 165.25366211 190.1328125 164.52734375 C189.7423877 163.9149585 189.35196289 163.30257324 188.94970703 162.67163086 C186.7078434 158.72560507 186.83318285 154.89998186 186.80712891 150.50610352 C186.79486267 149.3639312 186.79486267 149.3639312 186.78234863 148.19868469 C186.75751635 145.67543309 186.74097703 143.15223801 186.7265625 140.62890625 C186.72123882 139.76403028 186.71591515 138.89915432 186.71043015 138.00806999 C186.68369774 133.42311363 186.66433008 128.83818439 186.64990234 124.25317383 C186.63660866 120.47525576 186.6088415 116.69788366 186.56787109 112.92016602 C186.51826353 108.34545645 186.49374609 103.77123889 186.48667526 99.1962719 C186.48000524 97.46170621 186.46489551 95.72714965 186.44078445 93.99273872 C186.31844119 84.6531297 186.51583098 77.01976908 190.79838562 68.47009277 C194.25179555 61.3711074 194.36250617 53.31560006 194.3125 45.5625 C194.30404053 44.18227661 194.30404053 44.18227661 194.29541016 42.77416992 C194.07229032 30.29381823 190.69997046 20.72304208 182.5625 11.125 C178.16164912 7.4755139 173.38402903 4.95782874 168 3 C168.33 2.01 168.66 1.02 169 0 C217.51 0 266.02 0 316 0 C316 17.16 316 34.32 316 52 C315.01 52 314.02 52 313 52 C312.56300781 50.76636719 312.56300781 50.76636719 312.1171875 49.5078125 C309.41201167 42.14088713 306.36282345 35.52580071 302 29 C301.13375 27.6696875 301.13375 27.6696875 300.25 26.3125 C289.8089833 15.58145506 276.46678146 11.74894073 262 10 C260.02 9.67 258.04 9.34 256 9 C244.78 8.67 233.56 8.34 222 8 C222 36.71 222 65.42 222 95 C245.65843085 94.66245721 245.65843085 94.66245721 265.33203125 83.96484375 C270.29911074 78.11369391 273.31101636 70.431528 275 63 C276.32 63 277.64 63 279 63 C279 86.1 279 109.2 279 133 C277.68 132.67 276.36 132.34 275 132 C273.7265625 129.59375 273.7265625 129.59375 272.625 126.5 C268.61004149 116.23683858 264.31959337 109.64101319 254.08154297 105.16040039 C247.41665669 102.69338093 240.99280422 102.45499028 233.9375 102.3125 C232.78572266 102.27833984 231.63394531 102.24417969 230.44726562 102.20898438 C227.6316079 102.12720179 224.81623429 102.05782625 222 102 C222.03815123 112.64935683 222.09764977 123.29836468 222.18390274 133.94744682 C222.2232998 138.89303733 222.25552629 143.83845186 222.27099609 148.78417969 C222.286214 153.56306025 222.32075012 158.34145675 222.36830902 163.120121 C222.38307005 164.93718365 222.39103797 166.75431543 222.39188385 168.57143784 C222.27032432 185.04090742 222.27032432 185.04090742 230.4375 198.875 C235.57037823 202.99493831 241.70489053 204.45501124 248 206 C248.33 207.65 248.66 209.3 249 211 C218.31 211 187.62 211 156 211 C156.33 209.68 156.66 208.36 157 207 C157.845625 206.566875 158.69125 206.13375 159.5625 205.6875 C160.366875 205.130625 161.17125 204.57375 162 204 C163.04763617 198.07286357 161.08761924 194.86467768 157.78369141 190.00999451 C157.17444824 189.14946976 156.56520508 188.28894501 155.9375 187.40234375 C155.31278809 186.49102188 154.68807617 185.57970001 154.04443359 184.64076233 C152.04473863 181.72889934 150.02369173 178.83272444 148 175.9375 C145.36717538 172.13947909 142.74350023 168.33525256 140.125 164.52734375 C139.49197968 163.60856949 138.85895935 162.68979523 138.20675659 161.74317932 C134.0290484 155.63428198 130.20782925 149.44085545 126.63769531 142.96166992 C124.22196837 138.59297827 121.56245907 134.3925404 118.875 130.1875 C118.38902344 129.41986328 117.90304687 128.65222656 117.40234375 127.86132812 C116.43144257 126.33286699 115.45507424 124.80786304 114.47290039 123.28662109 C113.45677355 121.70912333 112.45412515 120.12288999 111.46264648 118.52978516 C107.84562495 112.78505401 107.84562495 112.78505401 102.3125 109 C101.19294922 108.443125 101.19294922 108.443125 100.05078125 107.875 C95.8716028 106.09188386 92.18269052 105.79287342 87.70703125 105.68359375 C87.00100266 105.66281265 86.29497406 105.64203156 85.56755066 105.62062073 C83.31596449 105.55532509 81.06426338 105.49633353 78.8125 105.4375 C77.2844934 105.39429575 75.75649836 105.35068084 74.22851562 105.30664062 C70.48579438 105.19966426 66.7429577 105.09834078 63 105 C63.06131775 115.81424048 63.13850079 126.62824176 63.23571491 137.4422226 C63.28036592 142.46406945 63.31963367 147.48583615 63.34643555 152.5078125 C63.37252107 157.35793993 63.41296061 162.20775808 63.46318626 167.05769348 C63.47981951 168.90432374 63.49135579 170.75100746 63.49761391 172.59770203 C63.50729366 175.1924145 63.53539851 177.78634205 63.56762695 180.38085938 C63.56619186 181.1375592 63.56475677 181.89425903 63.5632782 182.67388916 C63.67930286 189.31609152 64.96616044 194.91993681 69.75 199.8125 C75.32677502 203.56609857 80.31964806 205.31833143 87 206 C87.495 208.475 87.495 208.475 88 211 C58.96 211 29.92 211 0 211 C0 209.68 0 208.36 0 207 C0.92941406 206.75765625 1.85882813 206.5153125 2.81640625 206.265625 C13.81652218 203.83315436 13.81652218 203.83315436 22.3601017 197.1426115 C26.75686052 189.31311554 26.68304791 181.7349749 26.58349609 173.01293945 C26.58372317 171.41692942 26.58614401 169.82091844 26.59057617 168.22491455 C26.59625232 163.91705145 26.57109086 159.60987272 26.53990126 155.30213952 C26.51222734 150.78243997 26.51235471 146.26273676 26.50918579 141.7429657 C26.50000164 134.15819563 26.4725323 126.57367907 26.43212891 118.98901367 C26.37525692 108.30329421 26.35296232 97.61770198 26.33684421 86.93185484 C26.32437607 79.51386901 26.30371334 72.09590229 26.2814641 64.67794013 C26.27610932 62.88358871 26.27097217 61.08923663 26.26605177 59.29488397 C26.25171345 54.18063257 26.23222448 49.06645272 26.20457458 43.95225525 C26.19688261 42.40552687 26.19080816 40.85878945 26.18649673 39.31204796 C26.18023284 37.1955127 26.16785712 35.07909732 26.15390015 32.96260071 C26.14832785 31.78002339 26.14275555 30.59744608 26.13701439 29.37903309 C25.81234341 21.37203471 24.53460988 16.7521273 19 11 C13.34799592 6.11311438 7.28076701 4.89671211 0 4 C0 2.68 0 1.36 0 0 Z " fill="#D0A940" transform="translate(237,181)"/>
<path d="M0 0 C2.54077393 0.74113347 5.09570918 1.40195362 7.65795898 2.06469727 C14.46991958 3.9135471 21.02855442 6.38282877 27.61889648 8.89672852 C28.25890594 9.14044189 28.89891541 9.38415527 29.55831909 9.63525391 C39.51468754 13.44010493 49.09608461 17.56797627 58.43139648 22.70922852 C60.10324322 23.61813468 61.77512021 24.52698518 63.44702148 25.43579102 C66.93429181 27.33852463 70.41076584 29.25930273 73.88061523 31.19360352 C77.23903064 33.0628008 80.63229252 34.83798809 84.05639648 36.58422852 C91.61638543 40.69162408 98.43912415 46.04124479 105.33520508 51.15649414 C107.13753146 52.49155072 108.94766333 53.81443519 110.76342773 55.13110352 C129.22954546 68.67786725 146.32540893 84.51164268 161.43139648 101.70922852 C162.07206055 102.42336914 162.71272461 103.13750977 163.37280273 103.87329102 C177.80097466 120.07674137 190.02337883 137.70345322 200.43139648 156.70922852 C200.85517578 157.47315918 201.27895508 158.23708984 201.71557617 159.02416992 C227.10046911 204.94526563 242.31628505 256.76825116 242.66967773 309.40063477 C242.67774948 310.58479477 242.68582123 311.76895477 242.69413757 312.98899841 C242.70788675 315.48744282 242.71864931 317.98590529 242.7265625 320.484375 C242.73799584 322.98247989 242.75830726 325.48056206 242.78808594 327.97851562 C243.00127269 345.93979686 241.59768112 363.03084984 238.43139648 380.70922852 C238.1393483 382.37464188 238.1393483 382.37464188 237.84140015 384.07369995 C235.18010391 399.18455736 231.27948529 413.53826863 226.32446289 428.05786133 C225.57786509 430.27438732 224.86936722 432.49399864 224.19311523 434.73266602 C215.54006386 462.73708682 201.01328813 489.63894693 184.43139648 513.70922852 C184.03033691 514.30026367 183.62927734 514.89129883 183.21606445 515.50024414 C173.84366228 529.27350046 163.12208569 542.03455671 151.75561523 554.19750977 C149.84662356 556.26050413 148.02948258 558.35317489 146.24389648 560.52172852 C143.66339806 563.57007934 140.79598294 566.11855126 137.75561523 568.70141602 C135.50825487 570.64283321 133.32409437 572.64241715 131.14868164 574.66381836 C100.06139008 603.52846284 63.12777804 624.87816387 23.56811523 639.89526367 C21.71396343 640.60158704 19.86867419 641.33109163 18.02514648 642.06469727 C10.16897277 645.06910033 2.12529041 647.20871893 -6.00610352 649.33422852 C-7.11348877 649.62370361 -8.22087402 649.91317871 -9.36181641 650.21142578 C-58.58877669 662.77547793 -116.32703186 666.10068399 -165.56860352 651.70922852 C-166.43469238 651.46301758 -167.30078125 651.21680664 -168.19311523 650.96313477 C-173.25367363 649.52439074 -178.30202907 648.05038018 -183.34204102 646.54125977 C-187.35275732 645.34528939 -191.37135436 644.21800669 -195.42016602 643.15844727 C-239.41378293 631.44157286 -280.7258904 605.70302847 -314.02563477 575.03344727 C-316.13211519 573.10816946 -318.26876831 571.24328671 -320.44360352 569.39672852 C-329.13021768 561.81600774 -337.16454347 553.5578401 -344.32250977 544.52172852 C-346.3981891 541.92261701 -348.53268853 539.39438214 -350.70141602 536.87353516 C-358.67379835 527.59284349 -365.64257555 517.80388159 -372.17016602 507.45922852 C-373.76251427 504.94402715 -375.40318393 502.47308716 -377.09204102 500.02172852 C-390.24632538 480.7308936 -400.04393468 459.37202706 -407.65307617 437.35180664 C-408.49026071 434.9353572 -409.35792377 432.53270748 -410.23657227 430.13110352 C-416.70327791 412.10289706 -420.31472464 393.25759833 -423.38110352 374.39672852 C-423.58807861 373.12869385 -423.79505371 371.86065918 -424.00830078 370.55419922 C-426.39366799 355.29889708 -426.80655177 340.2423102 -426.81860352 324.83422852 C-426.81994293 323.82154907 -426.82128235 322.80886963 -426.82266235 321.76550293 C-426.81765451 304.23390922 -425.91933574 287.09467918 -423.56860352 269.70922852 C-423.4511377 268.81478027 -423.33367187 267.92033203 -423.21264648 266.9987793 C-421.58881867 255.02689008 -418.76697368 243.34958442 -415.56860352 231.70922852 C-415.32126465 230.80543457 -415.07392578 229.90164063 -414.8190918 228.97045898 C-400.72116446 178.28694996 -374.12089556 131.67452095 -338.11547852 93.44360352 C-336.10619528 91.28639758 -334.19048715 89.10866777 -332.31860352 86.83422852 C-329.77117463 83.81695684 -326.93525876 81.3079368 -323.92407227 78.76000977 C-321.67776046 76.80426566 -319.53295272 74.7647772 -317.38574219 72.70166016 C-304.1523578 60.09912413 -288.98865749 49.46713111 -273.56860352 39.70922852 C-272.99964355 39.34700195 -272.43068359 38.98477539 -271.84448242 38.61157227 C-267.48593112 35.85802386 -263.05507887 33.24851526 -258.56860352 30.70922852 C-257.78114746 30.26353516 -256.99369141 29.8178418 -256.18237305 29.35864258 C-218.71888616 8.43309135 -176.85709308 -5.59567414 -134.12719727 -10.0144043 C-131.74594647 -10.27161574 -129.37845934 -10.5798452 -127.00610352 -10.90795898 C-85.2594601 -16.34651253 -40.13332985 -12.0444886 0 0 Z M-238.45532227 28.58569336 C-240.95271541 29.91344327 -243.47752462 31.18017698 -246.00610352 32.44750977 C-258.47179233 38.73888583 -270.21928346 45.57267981 -281.56860352 53.70922852 C-282.26034668 54.20422852 -282.95208984 54.69922852 -283.66479492 55.20922852 C-285.72611655 56.69605172 -287.77539293 58.19762758 -289.81860352 59.70922852 C-290.39537842 60.13461914 -290.97215332 60.56000977 -291.56640625 60.99829102 C-303.42855539 69.96247829 -314.28398741 80.05131696 -324.78295898 90.55297852 C-326.68910428 92.45473963 -328.61075474 94.33984165 -330.53344727 96.22485352 C-338.6486913 104.26680226 -345.68282013 112.70309397 -352.32977295 121.98937988 C-353.97083788 124.26764404 -355.67221208 126.497183 -357.38110352 128.72485352 C-365.60823601 139.60123243 -372.87248916 150.83131541 -379.56860352 162.70922852 C-380.22554199 163.86841797 -380.22554199 163.86841797 -380.89575195 165.05102539 C-398.02334586 195.57211248 -408.80483666 229.11297583 -415.31860352 263.39672852 C-415.51728027 264.42749512 -415.71595703 265.45826172 -415.9206543 266.52026367 C-418.96281855 283.27432508 -419.88279286 299.93610465 -419.77441406 316.9375 C-419.75605161 319.9051167 -419.75390628 322.87241991 -419.75415039 325.84008789 C-419.97972179 346.51255896 -419.97972179 346.51255896 -417.15844727 366.90063477 C-416.51653967 369.95713519 -416.06184568 373.01369937 -415.61206055 376.10327148 C-407.27551081 432.74378017 -382.77358622 484.93034953 -347.56860352 529.70922852 C-346.79774414 530.69665039 -346.02688477 531.68407227 -345.23266602 532.70141602 C-331.89614133 549.40925549 -316.50425556 565.64146088 -299.56860352 578.70922852 C-298.25731393 579.73775749 -296.94612323 580.76641254 -295.63500977 581.79516602 C-277.46113118 595.96236937 -258.35804667 607.50015895 -237.73583984 617.72851562 C-235.37110953 618.90168665 -233.00969583 620.08133375 -230.64868164 621.26196289 C-158.59328885 657.21697522 -71.77967108 663.21260342 5.05639648 638.70922852 C7.86904788 637.76221653 10.65088881 636.74629643 13.43139648 635.70922852 C14.24560059 635.41580566 15.05980469 635.12238281 15.89868164 634.82006836 C55.27932263 620.61950482 90.9556983 600.43574381 122.43139648 572.70922852 C123.21772461 572.03375977 124.00405273 571.35829102 124.81420898 570.66235352 C137.30493575 559.73826027 149.32377651 547.87550219 159.43139648 534.70922852 C160.48002534 533.40931217 161.53101082 532.11129503 162.58374023 530.81469727 C171.21555129 520.08492707 178.7225495 508.84437668 185.93920898 497.1237793 C187.2108733 495.06606332 188.50042492 493.02258649 189.80639648 490.98657227 C208.49590133 461.52870038 219.99163458 428.3203483 227.76293945 394.54321289 C228.33623826 392.11266048 228.94672978 389.69965705 229.59155273 387.28735352 C236.0184252 362.88546153 236.94316456 336.6544836 236.18139648 311.52172852 C236.15839478 310.7197403 236.13539307 309.91775208 236.11169434 309.09146118 C235.71386665 295.82357918 234.79254584 282.79075759 232.43139648 269.70922852 C232.17616211 268.2919043 232.17616211 268.2919043 231.91577148 266.84594727 C226.2240963 236.15155608 217.00751456 207.29892518 203.86889648 179.02172852 C203.55960205 178.35204041 203.25030762 177.68235229 202.93164062 176.99237061 C198.6714213 167.81210096 193.93087891 159.22130295 188.43139648 150.70922852 C187.91569092 149.90316162 187.39998535 149.09709473 186.86865234 148.26660156 C168.42447549 119.69919112 146.80629256 93.41096041 120.25952148 72.01782227 C118.37107662 70.47628785 116.506139 68.90550909 114.66577148 67.30688477 C107.12044619 60.78203379 99.15009635 55.42243406 90.70532227 50.14331055 C88.4299175 48.70829578 86.17716605 47.24278817 83.92749023 45.76782227 C62.5038077 31.81300926 39.82347782 20.67587441 15.62866211 12.47729492 C14.04169628 11.9225622 12.46312397 11.34361447 10.89038086 10.74975586 C4.2016337 8.22771036 -2.48365311 6.32670889 -9.44360352 4.70922852 C-10.53729248 4.45359131 -11.63098145 4.1979541 -12.7578125 3.93457031 C-16.025359 3.18015602 -19.29608256 2.44173009 -22.56860352 1.70922852 C-23.45338379 1.50765137 -24.33816406 1.30607422 -25.24975586 1.09838867 C-94.85704137 -14.49593938 -175.508951 -5.47767681 -238.45532227 28.58569336 Z " fill="#CDA841" transform="translate(487.568603515625,72.290771484375)"/>
<path d="M0 0 C7.775625 -0.0825 15.55125 -0.165 23.5625 -0.25 C25.98408447 -0.28641602 28.40566895 -0.32283203 30.90063477 -0.36035156 C48.51093417 -0.51499891 64.03097567 0.86735 77.75 13.125 C85.41219335 21.33061132 88.52033531 31.80502966 89.25 42.75 C89.19842988 44.1681782 89.10975344 45.58513496 89 47 C88.92007813 48.06347656 88.84015625 49.12695312 88.7578125 50.22265625 C87.6044113 61.03873484 83.8875588 70.28772028 76 78 C53.22958214 95.03092209 27.93825854 92 0 92 C0 61.64 0 31.28 0 0 Z " fill="#1A5E5D" transform="translate(300,187)"/>
<path d="M0 0 C4.95407437 3.51893335 8.31542019 8.69604054 9.38671875 14.6953125 C10.07570832 22.50009603 9.6359362 28.97658231 5.38671875 35.6953125 C2.41556563 39.19974951 -0.58161147 41.52441339 -4.61328125 43.6953125 C-5.21527344 44.0459375 -5.81726563 44.3965625 -6.4375 44.7578125 C-11.70682495 47.02825772 -18.49885891 46.34099097 -23.86328125 44.5703125 C-30.56162918 41.60546997 -35.26786568 37.1823212 -37.95703125 30.3203125 C-39.68398084 23.41251413 -39.79207621 15.15207052 -36.859375 8.54296875 C-28.18050207 -4.32570491 -13.53349858 -6.91492628 0 0 Z " fill="#CDA841" transform="translate(538.61328125,454.3046875)"/>
<path d="M0 0 C4.16253275 -0.09938095 8.32442479 -0.17170617 12.48779297 -0.21972656 C13.90197795 -0.23975843 15.31608097 -0.26699248 16.72998047 -0.30175781 C18.77071419 -0.35065489 20.8103469 -0.37305123 22.8515625 -0.390625 C24.68968506 -0.4220459 24.68968506 -0.4220459 26.56494141 -0.45410156 C31.4292482 0.18894113 34.40392475 2.45712726 37.875 5.8125 C39.5542101 9.07763075 39.43721578 11.37735495 39 15 C36.91795609 18.86665297 34.79007781 21.72595332 31 24 C30.34 24 29.68 24 29 24 C30.57759575 26.42058585 32.16176093 28.83641198 33.75 31.25 C34.1934375 31.93191406 34.636875 32.61382812 35.09375 33.31640625 C37.46791798 36.91257246 39.79532387 40.07643581 43 43 C44 44 45 45 46 46 C44.20784545 47.79215455 41.74252626 47.38044151 39.3125 47.5 C33.6834619 47.4268092 33.6834619 47.4268092 31.1171875 45.82421875 C29.50438783 43.97787159 28.26894812 42.09933626 27 40 C26.36964844 39.0615625 25.73929687 38.123125 25.08984375 37.15625 C20 29.46583002 20 29.46583002 20 27 C18.35 27 16.7 27 15 27 C15.33 32.28 15.66 37.56 16 43 C17.32 43.33 18.64 43.66 20 44 C20 44.99 20 45.98 20 47 C17.04160645 47.02689449 14.08345573 47.04678741 11.125 47.0625 C10.28324219 47.07087891 9.44148438 47.07925781 8.57421875 47.08789062 C7.76855469 47.09111328 6.96289062 47.09433594 6.1328125 47.09765625 C5.01737061 47.10551147 5.01737061 47.10551147 3.87939453 47.11352539 C2 47 2 47 0 46 C0 45.34 0 44.68 0 44 C1.32 43.34 2.64 42.68 4 42 C4.0988364 36.78561957 4.17145206 31.57178357 4.21972656 26.35668945 C4.23984903 24.58250431 4.2671503 22.80838554 4.30175781 21.03442383 C4.35024992 18.48502233 4.37296153 15.93649705 4.390625 13.38671875 C4.41127014 12.59287277 4.43191528 11.79902679 4.45318604 10.98112488 C4.49947287 8.4809155 4.49947287 8.4809155 4 5 C2.10481752 3.06812695 2.10481752 3.06812695 0 2 C0 1.34 0 0.68 0 0 Z " fill="#CCA741" transform="translate(447,452)"/>
<path d="M0 0 C4.3049777 -0.07451364 8.60960734 -0.12877223 12.91503906 -0.16479492 C14.37767075 -0.17982196 15.84025782 -0.20024955 17.30273438 -0.22631836 C19.4128728 -0.26297267 21.52241226 -0.27978676 23.6328125 -0.29296875 C24.90012207 -0.3086792 26.16743164 -0.32438965 27.47314453 -0.34057617 C31.98660082 0.09527261 35.06868391 1.73465497 38.8125 4.1875 C40.78602857 7.19972782 40.98619781 10.48734213 41 14 C39.95628717 18.98662796 36.99726902 21.14480784 33 24 C32.01 24 31.02 24 30 24 C32.06946478 26.96825998 34.15785082 29.92269527 36.25 32.875 C37.12978516 34.13763672 37.12978516 34.13763672 38.02734375 35.42578125 C38.60097656 36.23144531 39.17460937 37.03710938 39.765625 37.8671875 C40.28930664 38.61081543 40.81298828 39.35444336 41.35253906 40.12060547 C43.10013301 42.11422998 44.56865026 42.99695267 47 44 C46.67 44.99 46.34 45.98 46 47 C44.27305325 47.13609913 42.54295278 47.23249228 40.8125 47.3125 C39.84957031 47.37050781 38.88664062 47.42851562 37.89453125 47.48828125 C33.85158585 46.80627292 32.58020417 45.1334067 30 42 C27.90045666 38.67969945 25.98616054 35.28786242 24.0625 31.86328125 C21.8565882 28.80090748 20.58497914 27.96470793 17 27 C17.05987789 29.46098116 17.14678474 31.91578412 17.25 34.375 C17.26417969 35.07367188 17.27835938 35.77234375 17.29296875 36.4921875 C17.36035782 38.77717646 17.36035782 38.77717646 18 42 C19.91388341 43.56483494 19.91388341 43.56483494 22 44 C22 44.99 22 45.98 22 47 C18.87507749 47.05791844 15.75029234 47.09356746 12.625 47.125 C11.73554688 47.14175781 10.84609375 47.15851563 9.9296875 47.17578125 C8.65351563 47.18544922 8.65351563 47.18544922 7.3515625 47.1953125 C6.17327881 47.21102295 6.17327881 47.21102295 4.97119141 47.22705078 C3 47 3 47 1 45 C1.8149292 44.34749268 2.6298584 43.69498535 3.46948242 43.02270508 C6.66116674 39.21023585 6.64897453 36.37941244 6.48828125 31.63671875 C6.48120651 30.84473587 6.47413177 30.05275299 6.46684265 29.23677063 C6.43896244 26.71936611 6.376242 24.20422644 6.3125 21.6875 C6.28740861 19.9759437 6.26459691 18.26435235 6.24414062 16.55273438 C6.18915747 12.36762346 6.10293418 8.18419504 6 4 C4.02 3.34 2.04 2.68 0 2 C0 1.34 0 0.68 0 0 Z " fill="#CDA841" transform="translate(128,452)"/>
<path d="M0 0 C1.11117188 -0.02900391 2.22234375 -0.05800781 3.3671875 -0.08789062 C10.02217053 -0.13938752 14.27402466 0.22187836 19.625 4.3125 C22.32121247 8.3568187 22.16819098 11.56584654 21.625 16.3125 C20.01610342 20.01296212 18.09998306 22.24922881 14.625 24.3125 C13.635 24.3125 12.645 24.3125 11.625 24.3125 C13.32243696 26.88281825 15.03220672 29.44333616 16.75 32 C17.224375 32.72123047 17.69875 33.44246094 18.1875 34.18554688 C21.24075584 38.70354031 24.26306711 42.03134277 28.625 45.3125 C28.13 46.3025 28.13 46.3025 27.625 47.3125 C23.50041578 47.86109002 19.73442226 48.04982419 15.625 47.3125 C12.41802711 44.84155368 10.61490618 41.80123012 8.625 38.3125 C7.56403006 36.47828078 6.50157184 34.64492148 5.4375 32.8125 C4.99019531 31.9771875 4.54289062 31.141875 4.08203125 30.28125 C2.77998722 28.14074432 2.77998722 28.14074432 0.44921875 27.53125 C-0.15277344 27.4590625 -0.75476563 27.386875 -1.375 27.3125 C-1.31512211 29.77348116 -1.22821526 32.22828412 -1.125 34.6875 C-1.11082031 35.38617188 -1.09664063 36.08484375 -1.08203125 36.8046875 C-1.01464218 39.08967646 -1.01464218 39.08967646 -0.375 42.3125 C1.53888341 43.87733494 1.53888341 43.87733494 3.625 44.3125 C3.625 45.3025 3.625 46.2925 3.625 47.3125 C-3.305 47.3125 -10.235 47.3125 -17.375 47.3125 C-17.375 46.3225 -17.375 45.3325 -17.375 44.3125 C-16.735625 44.044375 -16.09625 43.77625 -15.4375 43.5 C-13.04368314 42.42582248 -13.04368314 42.42582248 -12.375 39.3125 C-12.10111212 34.79265667 -12.06169489 30.27087072 -12.02490234 25.74389648 C-12.00835862 24.2531776 -11.98108863 22.76253754 -11.94287109 21.2722168 C-11.88783203 19.11205327 -11.86619141 16.95374087 -11.8515625 14.79296875 C-11.83174316 13.50285889 -11.81192383 12.21274902 -11.79150391 10.88354492 C-12.54884876 6.24853104 -14.14187158 4.63104751 -17.375 1.3125 C-11.59131242 0.00329663 -5.90668511 0.05103703 0 0 Z " fill="#CCA841" transform="translate(339.375,451.6875)"/>
<path d="M0 0 C13.92785846 -1.20384851 13.92785846 -1.20384851 18.33984375 1.359375 C20.18649327 3.46238293 21.57725652 5.58913703 23 8 C24.30988201 9.9392709 25.62254556 11.87666496 26.9375 13.8125 C27.92556641 15.33037109 27.92556641 15.33037109 28.93359375 16.87890625 C32.12814675 21.70394943 35.56632361 26.34391192 39 31 C39.14489234 26.89620302 39.23393542 22.79306033 39.3125 18.6875 C39.3753418 16.93663086 39.3753418 16.93663086 39.43945312 15.15039062 C39.45556641 14.03212891 39.47167969 12.91386719 39.48828125 11.76171875 C39.51446533 10.73006592 39.54064941 9.69841309 39.56762695 8.63549805 C39.26839582 5.75353665 39.26839582 5.75353665 36.46948242 4.32739258 C35.65455322 3.88935303 34.83962402 3.45131348 34 3 C34 2.01 34 1.02 34 0 C39.28 0 44.56 0 50 0 C50 0.99 50 1.98 50 3 C49.02885254 3.54877808 49.02885254 3.54877808 48.03808594 4.10864258 C45.62581567 6.34724557 45.66440298 6.93114293 45.45410156 10.10424805 C45.41280105 11.82303902 45.39302178 13.54243332 45.390625 15.26171875 C45.37408875 16.16751175 45.35755249 17.07330475 45.34051514 18.00654602 C45.2919213 20.90026552 45.27063915 23.79345913 45.25 26.6875 C45.22184981 28.64911516 45.19192373 30.61070571 45.16015625 32.57226562 C45.08615935 37.38146713 45.03665439 42.19037474 45 47 C42.171875 47.1640625 42.171875 47.1640625 39 47 C36.61196304 44.72051018 34.91113824 42.66194255 33 40 C31.88625 38.453125 31.88625 38.453125 30.75 36.875 C29.48587993 35.10944814 28.22610507 33.34114847 26.97387695 31.56713867 C23.88748518 27.20021647 20.70428853 22.92103968 17.4375 18.6875 C17.00791992 18.13046387 16.57833984 17.57342773 16.13574219 16.99951172 C14.17142782 14.41071072 14.17142782 14.41071072 12 12 C11.87633445 16.07487494 11.78563524 20.14902301 11.7253418 24.2253418 C11.70020781 25.61160304 11.66609408 26.99773187 11.62280273 28.38354492 C11.56211604 30.37621037 11.53645121 32.36984533 11.51171875 34.36328125 C11.48553467 35.56251221 11.45935059 36.76174316 11.43237305 37.99731445 C11.67419465 41.21461802 11.67419465 41.21461802 14.53051758 42.72729492 C15.34544678 43.1472876 16.16037598 43.56728027 17 44 C17 44.99 17 45.98 17 47 C11.72 47 6.44 47 1 47 C1 46.01 1 45.02 1 44 C1.96764282 43.63769287 1.96764282 43.63769287 2.95483398 43.26806641 C5.16472762 42.20712674 5.16472762 42.20712674 5.59399414 40.08740234 C5.63645264 39.30316895 5.67891113 38.51893555 5.72265625 37.7109375 C5.77695801 36.8147168 5.83125977 35.91849609 5.88720703 34.99511719 C5.92442871 34.00672852 5.96165039 33.01833984 6 32 C6.05397949 30.9471582 6.10795898 29.89431641 6.16357422 28.80957031 C6.3113198 25.41390921 6.38169502 22.02333057 6.4375 18.625 C6.48326172 17.46355469 6.52902344 16.30210937 6.57617188 15.10546875 C6.92997509 9.35882334 6.92997509 9.35882334 4.63330078 4.39355469 C2.81380839 3.17866369 2.81380839 3.17866369 0 2 C0 1.34 0 0.68 0 0 Z " fill="#CAA741" transform="translate(557,452)"/>
<path d="M0 0 C11.88 0 23.76 0 36 0 C36 3.96 36 7.92 36 12 C35.01 11.67 34.02 11.34 33 11 C32.3125 8.9375 32.3125 8.9375 32 7 C28.43928688 5.95117609 24.94472103 5.69613047 21.25 5.4375 C19.1875 5.293125 17.125 5.14875 15 5 C15 9.95 15 14.9 15 20 C17.3203125 19.9071875 17.3203125 19.9071875 19.6875 19.8125 C20.55761719 19.77769531 21.42773438 19.74289062 22.32421875 19.70703125 C25.81323937 19.02509734 25.81323937 19.02509734 30 14 C30 19.61 30 25.22 30 31 C29.34 31 28.68 31 28 31 C27.278125 30.195625 26.55625 29.39125 25.8125 28.5625 C22.75661002 25.29596461 22.75661002 25.29596461 16 25 C16 30.61 16 36.22 16 42 C18.413125 41.731875 20.82625 41.46375 23.3125 41.1875 C24.44619019 41.07184692 24.44619019 41.07184692 25.6027832 40.95385742 C28.45420452 40.60444661 30.57068471 40.32777599 32.8828125 38.5625 C33.77638634 37.31274637 34.66951716 36.06267598 35.5625 34.8125 C36.2740625 33.9153125 36.2740625 33.9153125 37 33 C37.66 33 38.32 33 39 33 C38.85970581 35.1462026 38.71261836 37.29196218 38.5625 39.4375 C38.48128906 40.63246094 38.40007812 41.82742188 38.31640625 43.05859375 C38 46 38 46 37 47 C34.26105915 47.08858646 31.5474673 47.11523479 28.80859375 47.09765625 C27.98875504 47.0962413 27.16891632 47.09482635 26.32423401 47.09336853 C23.69528618 47.08775289 21.06642227 47.07519779 18.4375 47.0625 C16.65950643 47.05748701 14.88151154 47.05292376 13.10351562 47.04882812 C8.73564455 47.03777839 4.36783652 47.02050331 0 47 C0 46.01 0 45.02 0 44 C1.98 43.505 1.98 43.505 4 43 C5.82566332 37.21196425 5.3028453 30.78092907 5.35009766 24.76391602 C5.36672001 23.21102986 5.39409235 21.65822213 5.43212891 20.10571289 C5.48678157 17.86043892 5.50874178 15.61694223 5.5234375 13.37109375 C5.54610687 12.67729111 5.56877625 11.98348846 5.59213257 11.2686615 C5.63787063 9.06889118 5.63787063 9.06889118 5 6 C2.5524787 4.1928403 2.5524787 4.1928403 0 3 C0 2.01 0 1.02 0 0 Z " fill="#CCA841" transform="translate(272,452)"/>
<path d="M0 0 C4.58846235 2.1592764 7.26295465 4.83249929 9.30859375 9.39453125 C11.53445166 17.78236869 11.11852316 27.33102584 7 35 C4.885188 37.98561694 3.50502938 39.69078487 -0.1484375 40.44140625 C-4.10098718 40.64494286 -6.42353537 40.33835967 -9.875 38.3125 C-16.10549512 31.53225531 -16.24866107 25.04387067 -16.1484375 16.1640625 C-15.89196641 10.69717885 -15.20283262 7.38325751 -11.5 3.125 C-7.54131 -0.2398865 -5.19993423 -0.43332785 0 0 Z " fill="#1B5E5D" transform="translate(527,455)"/>
<path d="M0 0 C11.88 0 23.76 0 36 0 C37.07396066 4.29584263 37.07329796 7.60212211 37 12 C34 11 34 11 32.125 8.5 C29.27898566 5.42346737 26.23138291 5.48168041 22.1875 5.1875 C20.145625 5.125625 18.10375 5.06375 16 5 C16 9.95 16 14.9 16 20 C18.1346875 19.8453125 18.1346875 19.8453125 20.3125 19.6875 C21.11300781 19.62949219 21.91351563 19.57148438 22.73828125 19.51171875 C25.40063848 18.90935468 26.31193548 18.10358809 28 16 C28.33 15.34 28.66 14.68 29 14 C29.99 14 30.98 14 32 14 C32 19.61 32 25.22 32 31 C31.01 31 30.02 31 29 31 C28.67 29.68 28.34 28.36 28 27 C24.37 26.34 20.74 25.68 17 25 C17.03298902 27.77407649 17.10009079 30.54005929 17.1875 33.3125 C17.19330078 34.09818359 17.19910156 34.88386719 17.20507812 35.69335938 C17.28983419 37.9064343 17.41239928 39.86321861 18 42 C20.38552991 44.11870348 20.38552991 44.11870348 23 45 C22.67 45.66 22.34 46.32 22 47 C15.07 47 8.14 47 1 47 C1 46.01 1 45.02 1 44 C2.32 43.34 3.64 42.68 5 42 C5.12354475 36.78565139 5.2143108 31.5721531 5.2746582 26.35668945 C5.29981206 24.58244999 5.33393961 22.80831424 5.37719727 21.03442383 C5.43781463 18.48492882 5.46619927 15.93680249 5.48828125 13.38671875 C5.51408768 12.59287277 5.5398941 11.79902679 5.56648254 10.98112488 C5.62411301 8.476843 5.62411301 8.476843 5 5 C2.59070502 3.04503911 2.59070502 3.04503911 0 2 C0 1.34 0 0.68 0 0 Z " fill="#C9A641" transform="translate(399,452)"/>
<path d="M0 0 C7.26 0 14.52 0 22 0 C21 3 21 3 19 4 C19.46814043 11.14978107 21.75589051 16.94981184 24.5625 23.5 C24.98724609 24.51320313 25.41199219 25.52640625 25.84960938 26.5703125 C26.8909276 29.05075592 27.94118541 31.52698684 29 34 C30.68082733 29.94321596 32.34214688 25.87872083 34 21.8125 C34.47695312 20.66201172 34.95390625 19.51152344 35.4453125 18.32617188 C35.89648438 17.21435547 36.34765625 16.10253906 36.8125 14.95703125 C37.23144531 13.93585205 37.65039062 12.91467285 38.08203125 11.86254883 C39.00280121 8.99126484 39.42941868 6.98361908 39 4 C38.01 3.34 37.02 2.68 36 2 C36 1.34 36 0.68 36 0 C41.28 0 46.56 0 52 0 C52 0.66 52 1.32 52 2 C51.27554688 2.49242187 50.55109375 2.98484375 49.8046875 3.4921875 C45.7999577 7.07301833 44.22794509 11.24808104 42.125 16.125 C41.69517822 17.0946167 41.26535645 18.0642334 40.82250977 19.06323242 C37.40019981 26.86334547 34.26749377 34.76393299 31.27734375 42.73828125 C30 46 30 46 29 47 C27.00041636 47.04080783 24.99954746 47.04254356 23 47 C22.66266846 46.17910889 22.32533691 45.35821777 21.9777832 44.51245117 C20.70270251 41.41233624 19.42578996 38.3129883 18.14770508 35.21411133 C17.5991392 33.88302528 17.05126569 32.55165364 16.50415039 31.2199707 C13.8255345 24.7014325 11.12837438 18.19050352 8.29296875 11.73828125 C7.73452271 10.46464722 7.73452271 10.46464722 7.16479492 9.1652832 C5.323709 5.742816 3.22646588 4.15097725 0 2 C0 1.34 0 0.68 0 0 Z " fill="#CBA741" transform="translate(212,452)"/>
<path d="M0 0 C13.86 0 27.72 0 42 0 C42.495 6.435 42.495 6.435 43 13 C42.01 13.33 41.02 13.66 40 14 C39.566875 12.88625 39.13375 11.7725 38.6875 10.625 C37.15726176 7.84484058 36.42472435 7.12596801 33.33129883 6.20849609 C32.34154053 6.06492676 31.35178223 5.92135742 30.33203125 5.7734375 C29.33534424 5.62052246 28.33865723 5.46760742 27.31176758 5.31005859 C26.54888428 5.20773926 25.78600098 5.10541992 25 5 C25.09354152 9.92994256 25.19963642 14.85939439 25.31738281 19.78881836 C25.35566993 21.46582634 25.39052331 23.14291638 25.421875 24.82006836 C25.46753179 27.23060432 25.5255241 29.64057557 25.5859375 32.05078125 C25.59748871 32.80087967 25.60903992 33.55097809 25.62094116 34.32380676 C25.72695459 38.06127713 25.87619082 39.81428623 28 43 C29.485 43.495 29.485 43.495 31 44 C30.67 44.99 30.34 45.98 30 47 C23.73 47 17.46 47 11 47 C10.505 45.515 10.505 45.515 10 44 C10.639375 43.731875 11.27875 43.46375 11.9375 43.1875 C14.33131686 42.11332248 14.33131686 42.11332248 15 39 C15.15322359 36.41669771 15.25706889 33.85507761 15.31640625 31.26953125 C15.33718735 30.51911057 15.35796844 29.76868988 15.37937927 28.99552917 C15.44469926 26.60127816 15.50367792 24.20691861 15.5625 21.8125 C15.60570193 20.18813987 15.64931676 18.56379067 15.69335938 16.93945312 C15.80036263 12.95974629 15.90167937 8.97993042 16 5 C10.05583993 5.14161532 10.05583993 5.14161532 4.87890625 7.62890625 C4.22728516 8.58603516 4.22728516 8.58603516 3.5625 9.5625 C2.73804346 10.72989288 1.89030306 11.88201288 1 13 C0.34 13 -0.32 13 -1 13 C-1.07972012 8.2965127 -0.93491183 4.67455917 0 0 Z " fill="#CCA841" transform="translate(618,452)"/>
<path d="M0 0 C6.93 0 13.86 0 21 0 C21 0.99 21 1.98 21 3 C20.360625 3.28875 19.72125 3.5775 19.0625 3.875 C16.84793921 4.82823451 16.84793921 4.82823451 16 7 C15.71747585 11.83473924 15.68639525 16.67023649 15.64990234 21.51245117 C15.63331766 23.12750635 15.60599414 24.74248739 15.56787109 26.35717773 C15.51319665 28.68512029 15.49124857 31.01134637 15.4765625 33.33984375 C15.45389313 34.06179428 15.43122375 34.78374481 15.40786743 35.52757263 C15.36186433 37.81433396 15.36186433 37.81433396 16 41 C18.38846589 43.04789034 18.38846589 43.04789034 21 44 C20.67 44.99 20.34 45.98 20 47 C13.4 47 6.8 47 0 47 C0 46.01 0 45.02 0 44 C0.639375 43.731875 1.27875 43.46375 1.9375 43.1875 C4.33131686 42.11332248 4.33131686 42.11332248 5 39 C5.27415349 34.30017633 5.31323416 29.60135757 5.35009766 24.89428711 C5.36668172 23.34140054 5.39400458 21.78859107 5.43212891 20.23608398 C5.48691249 17.99162424 5.50876661 15.74894449 5.5234375 13.50390625 C5.54610687 12.81212784 5.56877625 12.12034943 5.59213257 11.40760803 C5.63597665 9.17896574 5.63597665 9.17896574 5 6 C2.58137008 3.64014573 2.58137008 3.64014573 0 2 C0 1.34 0 0.68 0 0 Z " fill="#CFA840" transform="translate(184,452)"/>
<path d="M0 0 C8 0 8 0 11 2.0625 C13.48980198 5.71939665 13.55310065 7.65420914 13 12 C12.4375 14.3125 12.4375 14.3125 11 16 C7.10554113 17.44239217 4.16477964 18 0 18 C0 12.06 0 6.12 0 0 Z " fill="#1E5F5D" transform="translate(145,456)"/>
<path d="M0 0 C5.63385106 0 7.42692699 0.23488609 12 3 C13.2238892 5.44777839 13.016364 6.73390541 12.75 9.4375 C12.68296875 10.21996094 12.6159375 11.00242187 12.546875 11.80859375 C11.90080748 14.3974786 11.05180419 15.3392575 9 17 C7 18 7 18 0 18 C0 12.06 0 6.12 0 0 Z " fill="#1E5F5D" transform="translate(462,456)"/>
<path d="M0 0 C0.66 0 1.32 0 2 0 C2.95909551 2.22884145 3.91729837 4.45805968 4.875 6.6875 C5.14441406 7.31333984 5.41382813 7.93917969 5.69140625 8.58398438 C6.87370158 11.3378674 8.03071845 14.08307434 9.0703125 16.89453125 C9.80743601 19.16937122 9.80743601 19.16937122 12 20 C12 20.66 12 21.32 12 22 C9.29120665 23.35439668 6.99066732 23.06501451 4 23 C3.02391783 20.07175348 2.91773332 18.04386724 3 15 C0.69 15 -1.62 15 -4 15 C-4.33 16.65 -4.66 18.3 -5 20 C-4.34 20 -3.68 20 -3 20 C-3 20.66 -3 21.32 -3 22 C-5.31 22 -7.62 22 -10 22 C-9.70488525 21.42403076 -9.40977051 20.84806152 -9.10571289 20.25463867 C-8.08286113 18.1689606 -7.17771336 16.07920177 -6.30859375 13.92578125 C-6.00373047 13.17619141 -5.69886719 12.42660156 -5.38476562 11.65429688 C-4.74863214 10.08166997 -4.11322569 8.50874881 -3.47851562 6.93554688 C-1.10495627 1.10495627 -1.10495627 1.10495627 0 0 Z " fill="#C5A442" transform="translate(385,535)"/>
<path d="M0 0 C8.21225984 0.36230558 8.21225984 0.36230558 11.625 3.125 C13.44280454 6.92586404 13.09834318 8.97274169 12 13 C11 15.375 11 15.375 9 17 C5.96637644 17.63582163 3.11292861 17.81954037 0 18 C0 12.06 0 6.12 0 0 Z " fill="#1E5F5D" transform="translate(338,456)"/>
<path d="M0 0 C4.95 0 9.9 0 15 0 C15.33 1.98 15.66 3.96 16 6 C13.03 5.01 10.06 4.02 7 3 C7 4.98 7 6.96 7 9 C8.98 8.67 10.96 8.34 13 8 C13 9.98 13 11.96 13 14 C12.01 14.495 12.01 14.495 11 15 C11 14.34 11 13.68 11 13 C9.68 13 8.36 13 7 13 C7 15.31 7 17.62 7 20 C7.66 20 8.32 20 9 20 C9 20.66 9 21.32 9 22 C6.03 22 3.06 22 0 22 C0.33 21.34 0.66 20.68 1 20 C1.23274209 17.12089412 1.41972757 14.25853505 1.5625 11.375 C1.60568359 10.57320312 1.64886719 9.77140625 1.69335938 8.9453125 C1.79951457 6.9637489 1.90026855 4.98189729 2 3 C1.34 3 0.68 3 0 3 C0 2.01 0 1.02 0 0 Z " fill="#BAA044" transform="translate(402,535)"/>
<path d="M0 0 C5.28 0 10.56 0 16 0 C16 1.98 16 3.96 16 6 C15.34 5.67 14.68 5.34 14 5 C14 4.34 14 3.68 14 3 C11.69 2.67 9.38 2.34 7 2 C7 4.31 7 6.62 7 9 C8.32 9 9.64 9 11 9 C11.33 8.01 11.66 7.02 12 6 C12.66 6.33 13.32 6.66 14 7 C14 8.98 14 10.96 14 13 C11.69 12.34 9.38 11.68 7 11 C7.33 13.31 7.66 15.62 8 18 C10.97065509 17.65772428 10.97065509 17.65772428 14 17 C14.33 16.34 14.66 15.68 15 15 C15.66 15 16.32 15 17 15 C17 16.98 17 18.96 17 21 C11.39 21 5.78 21 0 21 C0.99 19.515 0.99 19.515 2 18 C2.30066154 15.24582682 2.50925299 12.57354853 2.625 9.8125 C2.66367187 9.06291016 2.70234375 8.31332031 2.7421875 7.54101562 C2.83628216 5.69440801 2.91922319 3.8472381 3 2 C2.01 1.67 1.02 1.34 0 1 C0 0.67 0 0.34 0 0 Z " fill="#CEA840" transform="translate(424,536)"/>
<path d="M0 0 C2.4375 1 2.4375 1 4 2 C4 3.98 4 5.96 4 8 C3.34 8 2.68 8 2 8 C1.566875 7.34 1.13375 6.68 0.6875 6 C-0.84680972 3.73325894 -0.84680972 3.73325894 -3.5625 3.625 C-6.17528109 3.78103864 -6.17528109 3.78103864 -8 6 C-9.05729365 10.22917458 -9.26269458 12.37181731 -7.5625 16.4375 C-7.046875 17.283125 -6.53125 18.12875 -6 19 C-1.78099043 19.4361141 -1.78099043 19.4361141 1.75 17.5 C2.1625 17.005 2.575 16.51 3 16 C3.66 16 4.32 16 5 16 C4.34 17.98 3.68 19.96 3 22 C-4.87675507 23.42433697 -4.87675507 23.42433697 -8.8125 21.9375 C-12.02904789 19.08855758 -14.65994825 16.46907143 -15.26953125 12.04296875 C-15.10040506 7.83092118 -13.92008856 5.41448657 -10.875 2.5 C-7.23832677 -0.24804055 -4.57058073 -0.68989898 0 0 Z " fill="#C3A442" transform="translate(365,535)"/>
<path d="M0 0 C0.99 0.99 1.98 1.98 3 3 C2.67 3.99 2.34 4.98 2 6 C2.66 6.66 3.32 7.32 4 8 C2.02 8 0.04 8 -2 8 C-2.33 9.65 -2.66 11.3 -3 13 C-2.34 13 -1.68 13 -1 13 C-1 13.66 -1 14.32 -1 15 C-3.31 15 -5.62 15 -8 15 C-7.71125 14.44699219 -7.4225 13.89398437 -7.125 13.32421875 C-5.52379822 10.01618036 -4.28915287 6.58395083 -3 3.14453125 C-2 1 -2 1 0 0 Z " fill="#A69847" transform="translate(383,542)"/>
<path d="M0 0 C2.31 0.33 4.62 0.66 7 1 C7.33 1.99 7.66 2.98 8 4 C7.01 4.33 6.02 4.66 5 5 C4.67 5.66 4.34 6.32 4 7 C2.68 7 1.36 7 0 7 C0 4.69 0 2.38 0 0 Z " fill="#376A59" transform="translate(431,538)"/>
<path d="M0 0 C0.33 0.99 0.66 1.98 1 3 C1.66 3 2.32 3 3 3 C3 3.66 3 4.32 3 5 C0.69 5 -1.62 5 -4 5 C-2.25 1.125 -2.25 1.125 0 0 Z " fill="#C9A641" transform="translate(379,552)"/>
</svg>
