<?xml version="1.0" encoding="UTF-8"?>
<svg version="1.1" xmlns="http://www.w3.org/2000/svg" width="793" height="792">
<path d="M0 0 C261.69 0 523.38 0 793 0 C793 261.36 793 522.72 793 792 C531.31 792 269.62 792 0 792 C0 530.64 0 269.28 0 0 Z " fill="#FEFEFE" transform="translate(0,0)"/>
<path d="M0 0 C261.69 0 523.38 0 793 0 C793 261.36 793 522.72 793 792 C531.31 792 269.62 792 0 792 C0 530.64 0 269.28 0 0 Z M334 65 C332.76233887 65.24669434 331.52467773 65.49338867 330.24951172 65.74755859 C279.94538331 76.06424312 232.56715369 96.39715991 191.71044922 127.69091797 C189.99380855 129.00473859 188.26492082 130.3011848 186.53515625 131.59765625 C178.36139755 137.80057607 170.89985063 144.61702724 163.49609375 151.71484375 C160.77883189 154.31044804 157.93943133 156.65772109 155 159 C153.92277722 160.13391871 152.87936572 161.30107129 151.875 162.5 C149.36471018 165.44497204 146.79293735 168.3092444 144.14477539 171.13110352 C124.65246771 192.00865134 108.85059509 216.55976061 96 242 C95.59491211 242.79776855 95.18982422 243.59553711 94.77246094 244.41748047 C71.46204899 290.77929979 60.81056515 340.52926466 60.81469727 392.18896484 C60.81251322 395.23158832 60.79428699 398.27384653 60.77539062 401.31640625 C60.72714494 417.92485727 61.92397639 434.24670345 64.75 450.625 C64.92063965 451.61532227 65.0912793 452.60564453 65.26708984 453.62597656 C68.97555318 474.51513192 74.37932731 494.17560353 81.88818359 514.02734375 C82.80423715 516.47659015 83.67977885 518.93019359 84.51953125 521.40625 C90.76376601 539.36549922 99.71813736 556.69851399 110.73779297 572.18115234 C112.65539437 574.94442709 114.4480945 577.78440731 116.25341797 580.62182617 C122.4696925 590.38859459 129.30631779 599.26084236 136.8190918 608.06787109 C139.710872 611.45809835 142.53041591 614.8935093 145.3125 618.375 C152.83632846 627.60386872 160.93448927 636.80174581 170.11328125 644.421875 C172.29634061 646.24787082 174.35482247 648.18535392 176.4375 650.125 C188.0426944 660.57323483 200.84772366 669.61909237 214 678 C214.8048584 678.51594727 215.6097168 679.03189453 216.43896484 679.56347656 C226.24281534 685.82485192 236.05390058 691.97615599 246.59863281 696.92041016 C249.61541688 698.33855229 252.61259657 699.79115324 255.60449219 701.26098633 C270.39962283 708.39056571 285.52478068 713.08852353 301.3125 717.5 C303.78623773 718.20682861 306.25954778 718.91515579 308.73242188 719.625 C321.49727528 723.26818973 334.03168979 726.70555592 347.1875 728.5625 C348.03119141 728.68818359 348.87488281 728.81386719 349.74414062 728.94335938 C363.32022355 730.88279979 376.80752501 731.16130612 390.49389648 731.13037109 C393.29741879 731.12502874 396.10077952 731.13033875 398.90429688 731.13671875 C414.24748782 731.14415161 429.38773734 730.71643154 444.5625 728.25 C445.65892822 728.0751709 446.75535645 727.9003418 447.88500977 727.72021484 C465.98617382 724.76285619 483.69973459 721.15415909 501 715 C502.05783691 714.62633301 503.11567383 714.25266602 504.20556641 713.86767578 C547.57297204 698.38672628 586.40298816 676.31103807 619.98144531 644.67773438 C622.9204716 641.90931584 625.89815513 639.21345667 628.9609375 636.58203125 C632.98483987 633.07841536 636.67788264 629.34005855 640.3125 625.4375 C640.95985107 624.74422607 641.60720215 624.05095215 642.27416992 623.33666992 C647.77996716 617.36961845 652.84083243 611.14083707 657.73242188 604.66601562 C658.98633165 603.01796472 660.26217618 601.38975269 661.546875 599.765625 C694.69299135 557.71898447 715.35107381 507.26724374 725.625 455 C725.93473755 453.43390991 725.93473755 453.43390991 726.25073242 451.83618164 C726.87525435 448.56334162 727.44862948 445.28594073 728 442 C728.19126465 440.89994629 728.3825293 439.79989258 728.57958984 438.66650391 C730.48904035 425.96703404 730.3721717 413.19690295 730.37060547 400.37890625 C730.37036531 396.43197563 730.4112408 392.48581044 730.44921875 388.5390625 C730.60069067 354.39412412 725.28424116 320.28397157 714 288 C713.71962891 287.16936035 713.43925781 286.3387207 713.15039062 285.48291016 C700.85187722 249.06926533 682.65131324 214.57270851 658 185 C657.57525391 184.49033691 657.15050781 183.98067383 656.71289062 183.45556641 C645.75582367 170.36194867 634.38423723 157.6235623 621.53613281 146.34912109 C620.48947519 145.42988555 619.44731911 144.50550498 618.40917969 143.57666016 C609.41959813 135.53433898 599.92892287 128.38346652 590.06005859 121.45605469 C588.27023216 120.19100078 586.50055437 118.90452271 584.73828125 117.6015625 C575.61166158 110.99221962 565.78729084 105.77805581 555.84326172 100.51416016 C553.12404927 99.06606162 550.42202804 97.59014856 547.72265625 96.10546875 C506.56803263 73.67835795 457.88077907 61.07617811 411.01171875 60.76171875 C409.80257813 60.75187958 408.5934375 60.74204041 407.34765625 60.73190308 C370.48714234 60.33127773 370.48714234 60.33127773 334 65 Z " fill="#FEFEFE" transform="translate(0,0)"/>
<path d="M0 0 C16.690813 -0.07034343 33.3815773 -0.12311146 50.07250309 -0.15543652 C57.82385806 -0.17085015 65.57512048 -0.19183321 73.32641602 -0.22631836 C80.08907417 -0.25639055 86.85166523 -0.2756149 93.61438841 -0.28226548 C97.18920326 -0.28614786 100.76382632 -0.29515429 104.33857918 -0.31719017 C132.98247168 -0.48686523 132.98247168 -0.48686523 145 3 C145.9869838 3.27934891 146.97396759 3.55869781 147.99085999 3.84651184 C161.25619433 7.86220053 172.50864022 16.42643439 180 28 C185.88579163 39.26577305 185.53106887 53.25788919 182.03515625 65.2578125 C177.41407721 77.49931244 168.65980983 86.31013073 157 92 C146.93669133 96.47641183 136.84596871 99.98793867 126 102 C126.76183594 102.3403125 127.52367187 102.680625 128.30859375 103.03125 C148.11633761 112.32926709 158.19343588 130.86358892 169.55810547 148.74023438 C173.81244197 155.40771468 178.14440228 162.02576916 182.46728516 168.64892578 C183.44828347 170.15370657 184.42731417 171.65977308 185.40380859 173.16748047 C198.20447368 193.34696988 198.20447368 193.34696988 218.60546875 204.51953125 C221.13000361 205.02608555 223.43193413 205.08666652 226 205 C225.16597656 204.46632813 224.33195313 203.93265625 223.47265625 203.3828125 C210.42541645 194.83770704 202.44579963 184.2130244 194.29492188 171.08105469 C193.40392577 169.64914466 192.50362769 168.22299438 191.59570312 166.80175781 C191.14646484 166.09631836 190.69722656 165.39087891 190.234375 164.6640625 C189.82928711 164.03193848 189.42419922 163.39981445 189.00683594 162.74853516 C186.716073 158.77025092 186.83342195 154.93413255 186.80712891 150.49023438 C186.79486267 149.34565262 186.79486267 149.34565262 186.78234863 148.177948 C186.75751929 145.64988987 186.74097908 143.12188809 186.7265625 140.59375 C186.72123882 139.72762589 186.71591515 138.86150177 186.71043015 137.96913147 C186.68370085 133.37884405 186.66433095 128.78858372 186.64990234 124.19824219 C186.63660031 120.41348909 186.60881706 116.6292799 186.56787109 112.84472656 C186.51831181 108.26353787 186.49375212 103.68283993 186.48667526 99.10139465 C186.47999839 97.3632115 186.46487025 95.62503776 186.44078445 93.88700867 C186.32282203 84.85471548 186.2783975 77.34854991 190.79647827 69.23303223 C196.68141023 58.3140414 195.67348871 39.48567194 192.4375 27.875 C189.43953003 19.69968472 185.23564296 12.05398698 178 7 C175.59258753 5.91985583 175.59258753 5.91985583 173.1875 5.25 C172.39730469 5.00765625 171.60710937 4.7653125 170.79296875 4.515625 C170.20128906 4.34546875 169.60960937 4.1753125 169 4 C169 2.68 169 1.36 169 0 C217.51 0 266.02 0 316 0 C316 17.16 316 34.32 316 52 C315.01 52 314.02 52 313 52 C312.56300781 50.76636719 312.56300781 50.76636719 312.1171875 49.5078125 C309.41201167 42.14088713 306.36282345 35.52580071 302 29 C301.13375 27.6696875 301.13375 27.6696875 300.25 26.3125 C289.8330776 15.60621864 276.45365112 11.69177596 262 10 C259.69 9.67 257.38 9.34 255 9 C244.11 8.67 233.22 8.34 222 8 C222 36.71 222 65.42 222 95 C246.19985881 94.71866293 246.19985881 94.71866293 265.47265625 83.7890625 C270.45543208 77.95246064 272.84597806 70.25012264 275 63 C276.32 63 277.64 63 279 63 C279 86.1 279 109.2 279 133 C277.68 132.67 276.36 132.34 275 132 C273.7265625 129.59375 273.7265625 129.59375 272.625 126.5 C268.99589349 117.22316544 265.18309225 110.4220866 256 106 C255.08661865 105.49710449 254.1732373 104.99420898 253.23217773 104.47607422 C247.49780653 102.02832157 241.19488757 102.42505037 235.0625 102.3125 C233.80630859 102.27833984 232.55011719 102.24417969 231.25585938 102.20898438 C228.17066214 102.12686886 225.08573616 102.05759701 222 102 C222.01491174 112.77976835 222.05667054 123.55907361 222.13209057 134.33859825 C222.16628631 139.34477019 222.191459 144.35063936 222.19555664 149.35693359 C222.19985551 154.19423388 222.22844948 159.03085202 222.27343178 163.867939 C222.28635615 165.70733278 222.29073252 167.54680842 222.28615379 169.38624191 C222.26380222 181.09905285 222.85203992 189.44412466 230.328125 198.96484375 C234.19768019 201.91226809 238.18382736 202.87867057 242.82421875 204.11523438 C244.796875 204.69140625 244.796875 204.69140625 248 206 C248.33 207.32 248.66 208.64 249 210 C218.31 210 187.62 210 156 210 C158.25 205.5 158.25 205.5 162 204 C163.27206506 196.32448877 158.88762765 191.54978359 154.625 185.5 C153.88765625 184.42411621 153.1503125 183.34823242 152.390625 182.23974609 C150.27292541 179.15096978 148.13774165 176.07492082 146 173 C144.31954152 170.55076223 142.65306515 168.0927979 141 165.625 C140.62480225 165.06643311 140.24960449 164.50786621 139.86303711 163.93237305 C135.80884934 157.82733149 132.01378089 151.5617627 128.1875 145.3125 C120.59530086 132.92887129 120.59530086 132.92887129 112.875 120.625 C112.36735107 119.80555908 111.85970215 118.98611816 111.33666992 118.1418457 C107.08919929 111.52188857 102.65636046 108.15925292 95 106 C92.47736383 105.77772481 89.9457433 105.64669784 87.4140625 105.5859375 C86.71227875 105.56657135 86.010495 105.5472052 85.28744507 105.5272522 C83.06675001 105.46792431 80.84600177 105.42126083 78.625 105.375 C77.11065566 105.33677698 75.59633206 105.29772278 74.08203125 105.2578125 C70.38821169 105.16226266 66.6942353 105.07806063 63 105 C63.0381276 115.7970089 63.09759215 126.59367295 63.18390274 137.39041042 C63.22332333 142.40441081 63.25553837 147.41823699 63.27099609 152.43237305 C63.28619837 157.2760851 63.3207072 162.11931807 63.36830902 166.96281624 C63.38308605 168.80582566 63.39103889 170.6489035 63.39188385 172.49197197 C62.99461026 187.08066501 62.99461026 187.08066501 69.49468994 199.64915466 C74.21149282 203.88195118 81.96468481 205.42556995 88 207 C88 207.99 88 208.98 88 210 C58.96 210 29.92 210 0 210 C0 209.01 0 208.02 0 207 C1.37671875 206.67128906 1.37671875 206.67128906 2.78125 206.3359375 C14.69340596 203.39293157 14.69340596 203.39293157 23.18750954 195.03738499 C26.61385103 187.23082654 26.55254214 179.58855586 26.48583984 171.22827148 C26.48798948 169.6552092 26.49187276 168.08214848 26.49734497 166.50909424 C26.50698377 162.26319105 26.49180417 158.01771269 26.47143888 153.77186084 C26.45378031 149.31447053 26.45739466 144.85709163 26.4581604 140.39967346 C26.45629141 132.91750037 26.43898146 125.43549018 26.41162109 117.95336914 C26.38016315 109.31913198 26.36962557 100.68507296 26.3710922 92.05078262 C26.37244609 82.83341062 26.35854891 73.6161067 26.34019899 64.39875531 C26.33594911 61.75332137 26.33451839 59.10789851 26.33372116 56.46246147 C26.33170288 52.29679798 26.31941716 48.13128232 26.29938889 43.96566772 C26.29357875 42.44235706 26.29108001 40.91902938 26.29224396 39.39570808 C26.52921683 23.70892551 26.52921683 23.70892551 18.84375 10.65625 C13.39102986 5.75804378 7.01403919 5.06084223 0 4 C0 2.68 0 1.36 0 0 Z " fill="#D4AC42" transform="translate(237,181)"/>
<path d="M0 0 C1.92271729 -0.00299103 1.92271729 -0.00299103 3.88427734 -0.00604248 C18.28889043 -0.00350743 32.41768436 0.35653705 46.6875 2.375 C48.43871402 2.58926265 50.1900005 2.80293528 51.94140625 3.015625 C132.01380432 13.92966438 209.72692291 58.52944318 260.34423828 121.47949219 C261.81593439 123.29802894 263.30067972 125.10616147 264.80395508 126.89868164 C270.26788707 133.4307414 275.13762937 140.19916542 279.8125 147.3125 C280.47636719 148.30701172 281.14023437 149.30152344 281.82421875 150.32617188 C305.44071823 185.9820023 320.73474362 226.06496506 329.375 267.8125 C329.56537842 268.71460205 329.75575684 269.6167041 329.9519043 270.54614258 C330.59950022 273.81405906 331.156771 277.0858631 331.6875 280.375 C331.81524811 281.16577942 331.94299622 281.95655884 332.07461548 282.77130127 C334.71213946 299.6544956 335.12626468 316.30274636 335.0100708 333.36761475 C334.99656135 336.06041581 335.00192995 338.7530543 335.00691986 341.44587421 C335.02594324 354.89006914 334.99246787 368.10466019 332.6875 381.375 C332.490354 382.58752441 332.29320801 383.80004883 332.09008789 385.04931641 C328.95359012 403.59566994 324.4743743 421.46939962 318.6875 439.375 C318.38650391 440.34276367 318.08550781 441.31052734 317.77539062 442.30761719 C304.12568646 486.13431632 278.76721884 527.15694862 247.9140625 560.92578125 C246.47342241 562.51048535 245.0501593 564.11123839 243.6484375 565.73046875 C234.579956 576.14054208 224.19294123 585.43597645 213.6875 594.375 C212.90503906 595.07109375 212.12257813 595.7671875 211.31640625 596.484375 C175.18337018 627.85092546 127.97773628 650.52476418 81.5 661.4375 C80.41283691 661.69499023 79.32567383 661.95248047 78.20556641 662.21777344 C69.4096191 664.26951104 60.61459846 666.01139026 51.6875 667.375 C50.44226563 667.56835938 49.19703125 667.76171875 47.9140625 667.9609375 C32.38330782 670.20752465 16.79980656 670.56169233 1.13208008 670.56030273 C-1.61197437 670.56248962 -4.35562535 670.58073943 -7.09960938 670.59960938 C-19.29326557 670.64011895 -31.21522087 669.87760336 -43.3125 668.375 C-44.0994928 668.28540009 -44.8864856 668.19580017 -45.69732666 668.10348511 C-59.69350984 666.48978677 -73.01285616 663.02796226 -86.53149414 659.12451172 C-90.00143027 658.12458784 -93.47755505 657.14894951 -96.95507812 656.17578125 C-109.45057921 652.63654938 -121.44741066 648.65289857 -133.3125 643.375 C-134.95425866 642.68917748 -136.59721107 642.00619325 -138.2421875 641.328125 C-168.05874705 628.60896908 -196.7035214 609.54960716 -220.3125 587.375 C-221.66031155 586.18029181 -223.01402556 584.99219156 -224.375 583.8125 C-225.00664062 583.26078125 -225.63828125 582.7090625 -226.2890625 582.140625 C-227.76059274 580.85658703 -229.2349286 579.57576219 -230.7109375 578.296875 C-239.34796 570.6962952 -246.69844761 562.25563233 -253.89453125 553.30078125 C-255.53147604 551.32005161 -257.21880118 549.38008271 -258.94921875 547.48046875 C-268.45276934 537.04422646 -275.87650961 525.24482259 -283.41210938 513.36230469 C-285.00019654 510.86592306 -286.60830052 508.38574223 -288.234375 505.9140625 C-298.80972024 489.69812513 -306.87744177 472.24637483 -313.35644531 454.03466797 C-314.31936307 451.35590749 -315.32431764 448.69586168 -316.3359375 446.03515625 C-329.16019783 411.64713966 -334.51739862 374.75411053 -334.44287109 338.19262695 C-334.43752924 335.07953989 -334.44283395 331.96659821 -334.44921875 328.85351562 C-334.46186608 299.66304453 -330.98840053 271.59340815 -323.3125 243.375 C-323.02922852 242.33021484 -322.74595703 241.28542969 -322.45410156 240.20898438 C-307.17185283 184.99025139 -276.78919755 135.58800571 -236.3125 95.375 C-235.52230469 94.57320313 -234.73210937 93.77140625 -233.91796875 92.9453125 C-213.53104438 72.32784133 -189.46911229 55.65454113 -164.3125 41.375 C-163.5189209 40.92060547 -162.7253418 40.46621094 -161.90771484 39.99804688 C-130.74492403 22.34315418 -96.3872831 11.06689941 -61.3125 4.375 C-60.23355469 4.16182129 -59.15460938 3.94864258 -58.04296875 3.72900391 C-38.78023334 0.09273005 -19.54882814 0.0081093 0 0 Z M-39.3125 8.375 C-40.55902344 8.49617188 -41.80554688 8.61734375 -43.08984375 8.7421875 C-62.05250704 10.87087135 -81.20887711 15.35721319 -99.3125 21.375 C-100.31651855 21.70685303 -100.31651855 21.70685303 -101.34082031 22.04541016 C-105.62393118 23.47681249 -109.87296731 24.98748626 -114.10693359 26.55810547 C-115.57092308 27.1003358 -117.03740425 27.63588809 -118.50634766 28.16455078 C-153.06883053 40.67842283 -185.75957029 60.13129944 -213.3125 84.375 C-213.86035156 84.83817627 -214.40820312 85.30135254 -214.97265625 85.77856445 C-231.32408074 99.733883 -247.92602019 115.56051361 -259.96240234 133.421875 C-261.51746988 135.67152062 -263.15111995 137.85005584 -264.80078125 140.03125 C-271.50294305 148.90128905 -277.72180161 157.82204806 -283.21972656 167.49047852 C-284.52145432 169.73534816 -285.8804137 171.94251026 -287.234375 174.15625 C-305.44389714 204.47784608 -316.54025295 239.93685826 -322.79931641 274.57226562 C-323.12203657 276.3347906 -323.46058707 278.09456402 -323.82177734 279.84960938 C-327.19371112 296.69289373 -327.72237986 313.81289953 -327.6875 330.9375 C-327.68695618 331.95225403 -327.68641235 332.96700806 -327.68585205 334.01251221 C-327.62063317 360.70685926 -325.19808084 386.54131243 -318.12451172 412.36816406 C-317.28046717 415.49361587 -316.49733723 418.63012082 -315.72265625 421.7734375 C-310.57080871 442.30863421 -303.61439712 462.38621065 -293.55126953 481.0625 C-292.04010029 483.88350808 -290.56692601 486.72349928 -289.08984375 489.5625 C-282.53782476 502.05567986 -275.77830389 514.07870369 -267.3125 525.375 C-266.88485352 525.94992187 -266.45720703 526.52484375 -266.01660156 527.1171875 C-258.34087128 537.39023151 -250.27817184 547.35828382 -241.6328125 556.83203125 C-240.01082348 558.60966568 -238.40249545 560.39981821 -236.8046875 562.19921875 C-232.57310928 566.94195091 -228.34305133 571.43734063 -223.47265625 575.5234375 C-220.85719029 577.76526547 -218.37965835 580.13505728 -215.875 582.5 C-196.15585763 600.76585298 -172.93381937 615.37469523 -148.84765625 627.12109375 C-145.56453338 628.73021038 -142.33899869 630.42445209 -139.12109375 632.16015625 C-96.37995793 654.89575131 -47.60604206 663.70764344 0.4375 663.75 C1.39238312 663.75208466 2.34726624 663.75416931 3.33108521 663.75631714 C24.26407293 663.75112761 44.44509649 661.69367235 64.9375 657.4375 C65.88261444 657.24314362 66.82772888 657.04878723 67.80148315 656.84854126 C118.4840243 646.32040704 165.71402547 624.45948155 205.6875 591.375 C206.49574219 590.71105225 206.49574219 590.71105225 207.3203125 590.03369141 C220.32735909 579.31905972 232.5314595 568.01750137 243.6875 555.375 C244.14866211 554.85325195 244.60982422 554.33150391 245.08496094 553.79394531 C258.60080941 538.39796461 269.95698179 521.80600812 280.6875 504.375 C281.40365479 503.21967773 281.40365479 503.21967773 282.13427734 502.04101562 C327.45362337 428.59638812 338.68875199 338.47007003 319.02246094 255.25561523 C315.51062104 240.58826054 311.53980366 226.30850064 305.6875 212.375 C305.20265137 211.21677734 305.20265137 211.21677734 304.70800781 210.03515625 C302.79289305 205.5151043 300.78453432 201.04499747 298.71289062 196.59472656 C297.66683652 194.3302685 296.65243775 192.05337609 295.640625 189.7734375 C285.51750161 167.29242816 271.49215995 146.27385441 255.6875 127.375 C254.88183594 126.39660156 254.07617188 125.41820312 253.24609375 124.41015625 C240.85451842 109.4668343 227.64766669 95.87799048 212.515625 83.68359375 C210.62718014 82.14205934 208.76224252 80.57128058 206.921875 78.97265625 C199.34903418 72.42401111 191.33835233 67.02665874 182.85888672 61.73193359 C180.74452203 60.41063396 178.63895007 59.07633211 176.53515625 57.73828125 C126.69352824 26.13769238 69.88205263 7.58428606 10.6875 6.375 C9.64045898 6.35308594 8.59341797 6.33117187 7.51464844 6.30859375 C-8.22053365 6.03213374 -23.67197062 6.65723568 -39.3125 8.375 Z " fill="#D5AD46" transform="translate(395.3125,60.625)"/>
<path d="M0 0 C7.8375 -0.061875 15.675 -0.12375 23.75 -0.1875 C27.42334473 -0.22846802 27.42334473 -0.22846802 31.17089844 -0.27026367 C33.15038564 -0.27903996 35.12987833 -0.28668117 37.109375 -0.29296875 C38.10598145 -0.30831665 39.10258789 -0.32366455 40.12939453 -0.33947754 C53.56377063 -0.3443806 67.2750191 3.38908591 77.375 12.625 C85.3282429 21.30729017 89.56994455 32.91170523 89.1875 44.671875 C87.80777538 61.80345572 87.80777538 61.80345572 83 69 C82.52820313 69.73734375 82.05640625 70.4746875 81.5703125 71.234375 C70.95242989 86.3737483 54.25892165 88.95430794 37 92 C24.79 92 12.58 92 0 92 C0 61.64 0 31.28 0 0 Z " fill="#FEFEFE" transform="translate(300,187)"/>
<path d="M0 0 C6.24448401 7.00600645 7.44143414 13.74140148 7.33984375 22.9296875 C6.52588517 30.28338224 2.3371278 35.27636985 -3.25390625 39.80859375 C-9.67075568 44.18698094 -16.50099271 43.51440136 -24 43 C-30.56407456 41.61123712 -34.40461171 37.17150073 -38.25 31.9375 C-42.42392449 24.93126961 -41.93383415 16.00214635 -40.125 8.25 C-36.21352942 2.26775087 -31.04177264 -2.56207112 -24.5625 -5.625 C-15.60630785 -6.56775707 -7.38490399 -5.47412464 0 0 Z " fill="#D5AD46" transform="translate(541,456)"/>
<path d="M0 0 C4.28663998 -0.0995024 8.57265331 -0.1717631 12.86010742 -0.21972656 C14.31595584 -0.23973822 15.77172494 -0.26695677 17.22729492 -0.30175781 C32.40190236 -0.65526014 32.40190236 -0.65526014 38 4 C40.40564046 8.51057586 40.2470996 12.10068014 39 17 C36.55040063 20.93685614 34.42734904 22.6471989 30 24 C34.32747209 32.29432151 40.17953361 39.60581276 47 46 C42.96957893 48.01521053 38.36242635 47.71362593 34 47 C30.15312892 44.60733074 28.28209635 40.46979256 26.00390625 36.67578125 C25.47543091 35.80022583 25.47543091 35.80022583 24.9362793 34.90698242 C23.91004753 33.18384791 22.91916457 31.43981223 21.9296875 29.6953125 C20.28027329 26.87584729 20.28027329 26.87584729 17.7578125 26.1171875 C17.17773438 26.07851563 16.59765625 26.03984375 16 26 C16.05985162 28.62748631 16.14676224 31.24916995 16.25 33.875 C16.26417969 34.62136719 16.27835938 35.36773437 16.29296875 36.13671875 C16.35986341 38.57138381 16.35986341 38.57138381 17 42 C18.90628782 43.60337399 18.90628782 43.60337399 21 44 C20.67 44.99 20.34 45.98 20 47 C17.60408962 47.02712351 15.20849043 47.0468982 12.8125 47.0625 C12.13896484 47.07087891 11.46542969 47.07925781 10.77148438 47.08789062 C7.04565869 47.10606538 3.6211958 46.89299392 0 46 C0 45.34 0 44.68 0 44 C0.639375 43.71125 1.27875 43.4225 1.9375 43.125 C4.15206079 42.17176549 4.15206079 42.17176549 5 40 C5.12294406 37.48169583 5.18833554 34.99206835 5.203125 32.47265625 C5.20882507 31.72793564 5.21452515 30.98321503 5.22039795 30.21592712 C5.22984791 28.63981549 5.23638192 27.06368409 5.24023438 25.48754883 C5.24994832 23.07533397 5.28097361 20.66396823 5.3125 18.25195312 C5.31902932 16.72135923 5.32428007 15.19075924 5.328125 13.66015625 C5.3404718 12.93820572 5.3528186 12.21625519 5.36553955 11.47242737 C5.36522875 7.51847563 5.36522875 7.51847563 3.60449219 4.08374023 C1.97980188 2.93571933 1.97980188 2.93571933 0 2 C0 1.34 0 0.68 0 0 Z " fill="#D5AE46" transform="translate(129,452)"/>
<path d="M0 0 C4.1625612 -0.07453622 8.3247618 -0.12878254 12.48779297 -0.16479492 C13.90192437 -0.17981825 15.31600968 -0.20024305 16.72998047 -0.22631836 C18.77062397 -0.26298954 20.81064792 -0.27979036 22.8515625 -0.29296875 C24.07697754 -0.3086792 25.30239258 -0.32438965 26.56494141 -0.34057617 C31.19270906 0.11825367 34.57403884 1.5468489 37.84375 4.87890625 C39.95742846 8.7563637 39.74120511 12.72594808 39 17 C36.13789725 20.92516949 33.4439145 22.3269969 29 24 C30.87971494 26.78208585 32.78145574 29.54840064 34.6875 32.3125 C35.48317383 33.49102539 35.48317383 33.49102539 36.29492188 34.69335938 C39.12023889 38.76666918 41.35088941 41.88676791 46 44 C45.67 44.99 45.34 45.98 45 47 C43.27305325 47.13609913 41.54295278 47.23249228 39.8125 47.3125 C38.84957031 47.37050781 37.88664062 47.42851562 36.89453125 47.48828125 C32.84143055 46.80455981 31.59626277 45.14064045 29 42 C26.96284456 39.05252661 25.13539386 35.98770987 23.30664062 32.90820312 C21.26423733 29.58707777 19.79197966 27.26399322 16 26 C16.05985162 28.62748631 16.14676224 31.24916995 16.25 33.875 C16.26417969 34.62136719 16.27835937 35.36773437 16.29296875 36.13671875 C16.35986341 38.57138381 16.35986341 38.57138381 17 42 C18.90628782 43.60337399 18.90628782 43.60337399 21 44 C20.67 44.99 20.34 45.98 20 47 C17.41659616 47.02703562 14.83347692 47.04685611 12.25 47.0625 C11.52039063 47.07087891 10.79078125 47.07925781 10.0390625 47.08789062 C6.51329442 47.10391684 3.38965084 46.95292713 0 46 C0 45.34 0 44.68 0 44 C1.98 43.505 1.98 43.505 4 43 C5.4850353 36.78755271 5.22345216 30.46359599 5.24023438 24.11572266 C5.25000019 21.87495628 5.28108807 19.63508514 5.3125 17.39453125 C5.31902529 15.96875542 5.32427762 14.54297307 5.328125 13.1171875 C5.3374707 11.82409668 5.34681641 10.53100586 5.35644531 9.19873047 C5.27621853 6.04278366 5.27621853 6.04278366 3.60449219 4.11767578 C1.98569545 2.93273029 1.98569545 2.93273029 0 2 C0 1.34 0 0.68 0 0 Z " fill="#D5AE47" transform="translate(322,452)"/>
<path d="M0 0 C4.14422261 -0.09953791 8.28779575 -0.17177901 12.43286133 -0.21972656 C13.84021134 -0.23973246 15.24747938 -0.26694662 16.65454102 -0.30175781 C31.17867668 -0.65186105 31.17867668 -0.65186105 37 4 C39.6524593 7.3444052 39.42794993 10.8631507 39 15 C36.66044097 19.41916706 33.90733625 21.97392035 30 25 C31.55246198 27.42364938 33.11627382 29.83855784 34.6875 32.25 C35.12255859 32.93191406 35.55761719 33.61382812 36.00585938 34.31640625 C38.62894022 38.31903332 41.1442425 41.08212946 45 44 C45 44.66 45 45.32 45 46 C40.49767604 46.67946657 36.47947595 46.91952545 32 46 C28.41988657 42.85607128 26.28519252 39.14599214 24 35 C23.09231356 33.45302902 22.17690386 31.9105335 21.25 30.375 C20.90453125 29.74335938 20.5590625 29.11171875 20.203125 28.4609375 C18.64651568 26.57076904 17.37258726 26.3688476 15 26 C15.06018017 28.25073828 15.14901206 30.50072325 15.25 32.75 C15.29640625 34.00296875 15.3428125 35.2559375 15.390625 36.546875 C16.07150347 40.40518636 16.98126522 41.60916205 20 44 C19.67 44.99 19.34 45.98 19 47 C12.56688704 47.09507063 6.34241995 47.15316726 0 46 C0 45.34 0 44.68 0 44 C0.65194336 43.63672607 1.30388672 43.27345215 1.97558594 42.89916992 C4.40177957 41.02998037 4.40177957 41.02998037 4.45410156 37.26293945 C4.45346919 35.71290909 4.43092222 34.16278783 4.390625 32.61328125 C4.38213531 31.38776802 4.38213531 31.38776802 4.37347412 30.13749695 C4.35108697 27.52856797 4.30088846 24.92101364 4.25 22.3125 C4.22993792 20.54363963 4.21168664 18.77475773 4.1953125 17.00585938 C4.1512148 12.67004344 4.08217294 8.33525475 4 4 C2.68 3.34 1.36 2.68 0 2 C0 1.34 0 0.68 0 0 Z " fill="#D5AE47" transform="translate(447,452)"/>
<path d="M0 0 C1.58080993 2.00331731 2.9125437 4.04795825 4.22705078 6.23510742 C5.23141983 7.77992424 6.23664324 9.3241859 7.24267578 10.86791992 C7.73574219 11.648125 8.22880859 12.42833008 8.73681641 13.23217773 C11.02291189 16.78416488 13.49813164 20.19145106 15.97705078 23.61010742 C17.37955078 25.56948242 18.78205078 27.52885742 20.22705078 29.54760742 C20.22705078 20.63760742 20.22705078 11.72760742 20.22705078 2.54760742 C17.75205078 1.55760742 17.75205078 1.55760742 15.22705078 0.54760742 C15.22705078 -0.11239258 15.22705078 -0.77239258 15.22705078 -1.45239258 C20.83705078 -1.45239258 26.44705078 -1.45239258 32.22705078 -1.45239258 C32.22705078 -0.79239258 32.22705078 -0.13239258 32.22705078 0.54760742 C31.26798828 0.98073242 31.26798828 0.98073242 30.28955078 1.42260742 C28.07498999 2.37584193 28.07498999 2.37584193 27.22705078 4.54760742 C27.081852 7.52362108 26.99272648 10.47987923 26.94580078 13.45776367 C26.92739136 14.3404039 26.90898193 15.22304413 26.89001465 16.13243103 C26.8111619 19.91889066 26.74344886 23.70553121 26.67480469 27.4921875 C26.62320845 30.25163941 26.56591523 33.01093195 26.50830078 35.77026367 C26.49472534 36.63377945 26.4811499 37.49729523 26.46716309 38.38697815 C26.33987559 44.43478261 26.33987559 44.43478261 25.22705078 45.54760742 C22.94580078 45.94604492 22.94580078 45.94604492 20.22705078 45.54760742 C18.00830078 43.33666992 18.00830078 43.33666992 15.72705078 40.17260742 C15.31052246 39.60550049 14.89399414 39.03839355 14.46484375 38.45410156 C13.03457879 36.49745947 11.63035737 34.52366423 10.22705078 32.54760742 C8.51407518 30.16020426 6.79819896 27.77492394 5.08056641 25.39086914 C3.94606751 23.81186461 2.81696778 22.22896392 1.69384766 20.6418457 C0.90977539 19.54138916 0.90977539 19.54138916 0.10986328 18.41870117 C-0.3501709 17.76828857 -0.81020508 17.11787598 -1.28417969 16.44775391 C-2.96333989 14.30460799 -4.81641325 12.43773561 -6.77294922 10.54760742 C-6.80191744 14.98509377 -6.8197371 19.42255589 -6.83544922 23.86010742 C-6.84382812 25.12274414 -6.85220703 26.38538086 -6.86083984 27.6862793 C-6.8640625 28.89477539 -6.86728516 30.10327148 -6.87060547 31.34838867 C-6.87584229 32.46383057 -6.8810791 33.57927246 -6.88647461 34.72851562 C-6.90044176 37.62812804 -6.90044176 37.62812804 -5.77294922 40.54760742 C-3.77278456 41.75642839 -3.77278456 41.75642839 -1.77294922 42.54760742 C-1.77294922 43.20760742 -1.77294922 43.86760742 -1.77294922 44.54760742 C-7.38294922 44.54760742 -12.99294922 44.54760742 -18.77294922 44.54760742 C-18.77294922 43.88760742 -18.77294922 43.22760742 -18.77294922 42.54760742 C-17.79503418 42.01232422 -16.81711914 41.47704102 -15.80957031 40.92553711 C-12.40092981 38.79635826 -12.40092981 38.79635826 -12.09179688 34.88061523 C-12.09274172 33.42030966 -12.12635787 31.95977813 -12.18701172 30.50073242 C-12.1955014 29.72953064 -12.20399109 28.95832886 -12.21273804 28.16375732 C-12.24625627 25.70693646 -12.32152018 23.25343114 -12.39794922 20.79760742 C-12.42805143 19.12968617 -12.45542681 17.46171333 -12.47998047 15.79370117 C-12.54604077 11.71039761 -12.64954123 7.62956403 -12.77294922 3.54760742 C-14.75294922 2.55760742 -16.73294922 1.56760742 -18.77294922 0.54760742 C-18.77294922 -0.11239258 -18.77294922 -0.77239258 -18.77294922 -1.45239258 C-12.87305311 -2.60672008 -4.98377334 -4.08268625 0 0 Z " fill="#D5AE47" transform="translate(575.77294921875,453.452392578125)"/>
<path d="M0 0 C11.88 0 23.76 0 36 0 C36 3.63 36 7.26 36 11 C32.64854297 9.32427149 31.45551853 8.45551853 29 6 C25.99221479 4.99740493 23.46179353 4.69685358 20.3125 4.4375 C18.559375 4.293125 16.80625 4.14875 15 4 C15 9.28 15 14.56 15 20 C18.63 19.67 22.26 19.34 26 19 C26.66 17.35 27.32 15.7 28 14 C28.99 14 29.98 14 31 14 C30.67 19.61 30.34 25.22 30 31 C29.34 31 28.68 31 28 31 C27.77570313 30.36578125 27.55140625 29.7315625 27.3203125 29.078125 C26.16214243 26.77983843 26.16214243 26.77983843 23.6171875 26.171875 C22.71226562 26.03265625 21.80734375 25.8934375 20.875 25.75 C19.26625 25.5025 17.6575 25.255 16 25 C16 30.28 16 35.56 16 41 C25.19513279 41.20178708 25.19513279 41.20178708 33.125 37.5625 C34.053125 36.2940625 34.053125 36.2940625 35 35 C37.1171875 33.83984375 37.1171875 33.83984375 39 33 C38.88655624 35.1464753 38.75893655 37.29220592 38.625 39.4375 C38.55539062 40.63246094 38.48578125 41.82742188 38.4140625 43.05859375 C38.27742188 44.02925781 38.14078125 44.99992187 38 46 C35.31283411 47.34358295 33.22097965 47.12962393 30.21484375 47.1328125 C29.04373047 47.13410156 27.87261719 47.13539063 26.66601562 47.13671875 C24.82040039 47.13091797 24.82040039 47.13091797 22.9375 47.125 C21.73416016 47.12886719 20.53082031 47.13273437 19.29101562 47.13671875 C12.77516362 47.12960149 6.45779806 46.87586927 0 46 C1 43 1 43 3.03588867 41.28369141 C5.73100234 38.15005644 5.52500558 35.39926155 5.42578125 31.4609375 C5.42249313 30.73887115 5.41920502 30.01680481 5.41581726 29.27285767 C5.40541965 27.75147443 5.38550879 26.23013016 5.35668945 24.70898438 C5.31252047 22.37608132 5.29523789 20.04420742 5.28320312 17.7109375 C5.26978222 16.23175593 5.25486012 14.75258705 5.23828125 13.2734375 C5.23089432 12.57447357 5.22350739 11.87550964 5.21589661 11.15536499 C5.18704279 7.45313932 5.18704279 7.45313932 4 4 C1.98330173 2.86649466 1.98330173 2.86649466 0 2 C0 1.34 0 0.68 0 0 Z " fill="#D5AE46" transform="translate(272,452)"/>
<path d="M0 0 C4.69832841 2.95820678 6.91492877 5.91913677 9 11 C9.28561776 13.72736959 9.43022845 16.16109979 9.375 18.875 C9.36629883 19.58172852 9.35759766 20.28845703 9.34863281 21.01660156 C9.16353838 27.59200551 8.26583333 32.32219698 3.9375 37.4375 C0.28426779 40.38365501 -2.33519566 40.3887337 -7 40 C-11.38538682 38.10826451 -13.39436695 35.8503505 -15.375 31.625 C-18.07679875 23.98309225 -18.32677999 15.12013835 -15.8125 7.375 C-12.11474211 0.48951978 -7.58775806 -1.53896327 0 0 Z " fill="#FEFEFD" transform="translate(528,455)"/>
<path d="M0 0 C11.88 0 23.76 0 36 0 C37.07396066 4.29584263 37.07329796 7.60212211 37 12 C33.29655972 10.76551991 31.69749018 8.76665659 29 6 C26.43106162 4.71553081 24.23423663 4.67022856 21.375 4.4375 C19.60125 4.293125 17.8275 4.14875 16 4 C16 9.28 16 14.56 16 20 C17.423125 19.855625 18.84625 19.71125 20.3125 19.5625 C21.51326172 19.44068359 21.51326172 19.44068359 22.73828125 19.31640625 C25.16087179 19.04734307 25.16087179 19.04734307 28 18 C28.73323796 15.98491642 28.73323796 15.98491642 29 14 C29.99 14 30.98 14 32 14 C32 19.61 32 25.22 32 31 C31.01 31 30.02 31 29 31 C28.77570313 30.36578125 28.55140625 29.7315625 28.3203125 29.078125 C27.16214243 26.77983843 27.16214243 26.77983843 24.6171875 26.171875 C23.71226562 26.03265625 22.80734375 25.8934375 21.875 25.75 C20.96492188 25.60046875 20.05484375 25.4509375 19.1171875 25.296875 C18.41851562 25.19890625 17.71984375 25.1009375 17 25 C17.05999147 27.60662951 17.14696549 30.20751889 17.25 32.8125 C17.26417969 33.55048828 17.27835937 34.28847656 17.29296875 35.04882812 C17.46509047 39.52437418 17.46509047 39.52437418 20.046875 43.01171875 C20.69140625 43.33785156 21.3359375 43.66398437 22 44 C21.67 44.99 21.34 45.98 21 47 C17.87501937 47.02895976 14.7500731 47.04678483 11.625 47.0625 C10.73554688 47.07087891 9.84609375 47.07925781 8.9296875 47.08789062 C7.65351563 47.09272461 7.65351563 47.09272461 6.3515625 47.09765625 C5.17327881 47.10551147 5.17327881 47.10551147 3.97119141 47.11352539 C2 47 2 47 0 46 C0 45.34 0 44.68 0 44 C2.475 43.505 2.475 43.505 5 43 C5.12353289 37.64323369 5.21430573 32.28729474 5.2746582 26.92944336 C5.29981397 25.10670533 5.33394285 23.28406828 5.37719727 21.46166992 C5.43780546 18.84268307 5.46619761 16.22502847 5.48828125 13.60546875 C5.51408768 12.78974899 5.5398941 11.97402924 5.56648254 11.1335907 C5.62427764 8.56370964 5.62427764 8.56370964 5 5 C2.59461903 3.02900406 2.59461903 3.02900406 0 2 C0 1.34 0 0.68 0 0 Z " fill="#D6AE49" transform="translate(399,452)"/>
<path d="M0 0 C7.26 0 14.52 0 22 0 C22 0.66 22 1.32 22 2 C20.68 2.33 19.36 2.66 18 3 C19.3327191 9.86594551 21.40028028 16.04209314 24.0625 22.5 C24.42666016 23.40492188 24.79082031 24.30984375 25.16601562 25.2421875 C26.60240782 29.41613517 26.60240782 29.41613517 29 33 C30.6812573 29.11030393 32.3424037 25.21233129 34 21.3125 C34.47695312 20.20970703 34.95390625 19.10691406 35.4453125 17.97070312 C35.89648438 16.90400391 36.34765625 15.83730469 36.8125 14.73828125 C37.23144531 13.75899658 37.65039062 12.77971191 38.08203125 11.77075195 C39.02271682 8.93143266 39.4235661 6.96081634 39 4 C38.01 3.34 37.02 2.68 36 2 C36 1.34 36 0.68 36 0 C41.28 0 46.56 0 52 0 C50.65228516 1.42892578 50.65228516 1.42892578 49.27734375 2.88671875 C45.6413635 7.13918377 43.63931998 11.65855684 41.5625 16.8125 C41.18416016 17.72161133 40.80582031 18.63072266 40.41601562 19.56738281 C37.53980392 26.52588155 34.78395186 33.53516409 32.11938477 40.57739258 C30.09843866 45.90156134 30.09843866 45.90156134 29 47 C27.00041636 47.04080783 24.99954746 47.04254356 23 47 C22.69819824 46.25540527 22.39639648 45.51081055 22.08544922 44.74365234 C19.22255582 37.68471842 19.22255582 37.68471842 16.34301758 30.63256836 C16.09148422 30.01863724 15.83995087 29.40470612 15.58079529 28.77217102 C15.33112503 28.1628624 15.08145477 27.55355377 14.82421875 26.92578125 C13.23232731 23.03884765 11.6576233 19.1487193 10.14453125 15.23046875 C9.66371094 14.02003906 9.18289062 12.80960937 8.6875 11.5625 C8.10548828 10.04849609 8.10548828 10.04849609 7.51171875 8.50390625 C5.57486597 5.29583744 3.13762706 3.96913147 0 2 C0 1.34 0 0.68 0 0 Z " fill="#D5AD46" transform="translate(212,452)"/>
<path d="M0 0 C13.86 0 27.72 0 42 0 C42.495 6.435 42.495 6.435 43 13 C41.68 12.67 40.36 12.34 39 12 C38.46375 11.030625 37.9275 10.06125 37.375 9.0625 C34.66727094 5.57095464 34.00413358 5.50068893 29.8515625 4.80859375 C28.491521 4.57160767 28.491521 4.57160767 27.10400391 4.32983398 C26.06252197 4.16656616 26.06252197 4.16656616 25 4 C25.06881974 9.07250914 25.15675694 14.14418939 25.26245117 19.21606445 C25.29571172 20.94155693 25.32374019 22.66715849 25.34643555 24.39282227 C25.37996153 26.87303166 25.43227406 29.3522403 25.48828125 31.83203125 C25.49467117 32.60400345 25.5010611 33.37597565 25.50764465 34.17134094 C25.58719035 38.32353128 25.58719035 38.32353128 27.40698242 41.94799805 C29.0264037 43.06307872 29.0264037 43.06307872 31 44 C31 44.66 31 45.32 31 46 C27.99674904 47.50162548 24.91443758 47.14368999 21.625 47.125 C20.95210937 47.12886719 20.27921875 47.13273437 19.5859375 47.13671875 C16.24719055 47.13014641 13.19146915 47.03109003 10 46 C10.33 45.01 10.66 44.02 11 43 C12.485 42.505 12.485 42.505 14 42 C15.00643768 37.77009642 15.2125027 33.62025877 15.31640625 29.29296875 C15.33718735 28.56757401 15.35796844 27.84217926 15.37937927 27.09480286 C15.44442215 24.79245887 15.50354773 22.49000718 15.5625 20.1875 C15.60572835 18.62043186 15.64934398 17.05337435 15.69335938 15.48632812 C15.80005668 11.65766064 15.90144969 7.8288855 16 4 C10.00716353 4.348581 10.00716353 4.348581 5.0625 7.4375 C3.01150661 9.79996208 3.01150661 9.79996208 2 12 C1.01 12 0.02 12 -1 12 C-1.07329796 7.60212211 -1.07396066 4.29584263 0 0 Z " fill="#D4AC43" transform="translate(618,452)"/>
<path d="M0 0 C6.93 0 13.86 0 21 0 C21 0.66 21 1.32 21 2 C20.186521 2.70946777 19.37304199 3.41893555 18.53491211 4.14990234 C15.41568233 7.65697048 15.31422974 10.13094257 15.44140625 14.6015625 C15.44373764 15.31984222 15.44606903 16.03812195 15.44847107 16.77816772 C15.45817655 18.28940792 15.47989031 19.80061348 15.51293945 21.31152344 C15.56249777 23.62489609 15.57443098 25.93614351 15.58007812 28.25 C15.59415996 29.7213768 15.61036289 31.19273516 15.62890625 32.6640625 C15.63426895 33.35472809 15.63963165 34.04539368 15.64515686 34.75698853 C15.73492935 38.37497536 15.93631718 39.90447577 18 43 C19.485 43.495 19.485 43.495 21 44 C21 44.66 21 45.32 21 46 C14.07 46 7.14 46 0 46 C0 45.34 0 44.68 0 44 C1.98 43.505 1.98 43.505 4 43 C5.4850353 36.78755271 5.22345216 30.46359599 5.24023438 24.11572266 C5.25000019 21.87495628 5.28108807 19.63508514 5.3125 17.39453125 C5.31902529 15.96875542 5.32427762 14.54297307 5.328125 13.1171875 C5.3374707 11.82409668 5.34681641 10.53100586 5.35644531 9.19873047 C5.27621853 6.04278366 5.27621853 6.04278366 3.60449219 4.11767578 C1.98569545 2.93273029 1.98569545 2.93273029 0 2 C0 1.34 0 0.68 0 0 Z " fill="#D4AB41" transform="translate(184,452)"/>
<path d="M0 0 C5.28 0 10.56 0 16 0 C16 1.98 16 3.96 16 6 C15.01 5.34 14.02 4.68 13 4 C11.0103005 3.60986284 9.00980131 3.26797351 7 3 C7 4.98 7 6.96 7 9 C8.98 8.34 10.96 7.68 13 7 C14 8 14 8 14.0625 11.0625 C14.041875 12.031875 14.02125 13.00125 14 14 C11.69 13.34 9.38 12.68 7 12 C7 14.31 7 16.62 7 19 C10.35433109 18.05066101 13.69246505 17.10251165 17 16 C17.042721 17.66611905 17.04063832 19.33382885 17 21 C16 22 16 22 12.40234375 22.09765625 C10.91403133 22.0909822 9.42573568 22.07902183 7.9375 22.0625 C7.17888672 22.05798828 6.42027344 22.05347656 5.63867188 22.04882812 C3.75908129 22.0370068 1.87953101 22.01907078 0 22 C0.495 20.515 0.495 20.515 1 19 C1.66 19 2.32 19 3 19 C2.88660796 16.35319096 2.75987127 13.70822482 2.625 11.0625 C2.5940625 10.30775391 2.563125 9.55300781 2.53125 8.77539062 C2.4273685 6.84492605 2.22104386 4.92057919 2 3 C1.34 2.67 0.68 2.34 0 2 C0 1.34 0 0.68 0 0 Z " fill="#D6B04B" transform="translate(424,535)"/>
<path d="M0 0 C8.18204489 0.48129676 8.18204489 0.48129676 11.5625 2.625 C13.60024267 5.99170528 13.54318386 8.129815 13 12 C11.5625 14.875 11.5625 14.875 9 17 C5.93778587 17.71152996 3.16732605 17.86026503 0 18 C0 12.06 0 6.12 0 0 Z " fill="#FDFCFA" transform="translate(462,456)"/>
<path d="M0 0 C3 1 3 1 3.95141602 2.75 C4.34864868 3.86375 4.34864868 3.86375 4.75390625 5 C5.05103516 5.804375 5.34816406 6.60875 5.65429688 7.4375 C5.95400391 8.283125 6.25371094 9.12875 6.5625 10 C7.16164325 11.66895103 7.76681571 13.33575382 8.37890625 15 C8.77444702 16.11375 8.77444702 16.11375 9.17797852 17.25 C9.87022585 19.19320725 9.87022585 19.19320725 12 20 C12 20.66 12 21.32 12 22 C9.03 22 6.06 22 3 22 C3 19.36 3 16.72 3 14 C0.05272465 14.10169161 0.05272465 14.10169161 -3 15 C-4.45291273 17.46255685 -4.45291273 17.46255685 -5 20 C-4.34 20 -3.68 20 -3 20 C-3 20.66 -3 21.32 -3 22 C-5.31 22 -7.62 22 -10 22 C-10.33 21.34 -10.66 20.68 -11 20 C-10.35224609 19.49146484 -10.35224609 19.49146484 -9.69140625 18.97265625 C-7.27279277 16.15187148 -6.20994577 12.87733421 -4.9375 9.4375 C-2.25506757 2.25506757 -2.25506757 2.25506757 0 0 Z " fill="#D8B353" transform="translate(385,535)"/>
<path d="M0 0 C8 0 8 0 11 1.5 C13.44645672 4.5580709 13.61232844 6.27656082 13.36328125 10.09765625 C12.86048824 12.73056157 11.95982195 14.18535005 10 16 C7 17 7 17 0 17 C0 11.39 0 5.78 0 0 Z " fill="#FEFDFB" transform="translate(145,456)"/>
<path d="M0 0 C8 0 8 0 11.0625 2.5625 C13 6 13 6 13.0625 9.625 C11.88457059 13.36665814 11.25545469 14.82969687 8 17 C4.04 17.495 4.04 17.495 0 18 C0 12.06 0 6.12 0 0 Z " fill="#FEFDFA" transform="translate(338,456)"/>
<path d="M0 0 C4.95 0 9.9 0 15 0 C15.33 1.98 15.66 3.96 16 6 C13.03 5.01 10.06 4.02 7 3 C7 4.98 7 6.96 7 9 C8.98 8.67 10.96 8.34 13 8 C13 9.98 13 11.96 13 14 C12.34 14 11.68 14 11 14 C11 13.34 11 12.68 11 12 C9.68 12 8.36 12 7 12 C7 14.31 7 16.62 7 19 C7.99 19.33 8.98 19.66 10 20 C10 20.66 10 21.32 10 22 C6.7 22 3.4 22 0 22 C0 21.34 0 20.68 0 20 C0.66 20 1.32 20 2 20 C1.85919445 17.22882696 1.71256882 14.45817359 1.5625 11.6875 C1.52318359 10.90181641 1.48386719 10.11613281 1.44335938 9.30664062 C1.40146484 8.54931641 1.35957031 7.79199219 1.31640625 7.01171875 C1.26141968 5.96697388 1.26141968 5.96697388 1.20532227 4.90112305 C1.04418847 2.7783428 1.04418847 2.7783428 0 0 Z " fill="#D8B455" transform="translate(402,535)"/>
<path d="M0 0 C2 2 2 2 2.125 4.625 C2.08375 5.40875 2.0425 6.1925 2 7 C-1 6 -1 6 -3 3 C-5.45672892 2.33314062 -5.45672892 2.33314062 -8 3 C-10.11672853 4.85060538 -10.11672853 4.85060538 -11 8 C-10.94319438 11.38251675 -10.53784714 14.66275568 -10 18 C-4.67934241 18.56211314 -4.67934241 18.56211314 -0.125 16.5 C0.24625 16.005 0.6175 15.51 1 15 C1.66 15 2.32 15 3 15 C2.67 16.98 2.34 18.96 2 21 C-2.05671355 22.35223785 -5.75834954 22.54418363 -10 22 C-13.60507053 19.85229841 -15.4320516 17.84604383 -17 14 C-17.42249267 9.07972079 -16.64573694 5.81131052 -13.5625 1.9375 C-9.53359616 -0.90527886 -4.7263072 -0.80755249 0 0 Z " fill="#D6B04C" transform="translate(367,535)"/>
<path d="M0 0 C0.66 0 1.32 0 2 0 C1.67 1.98 1.34 3.96 1 6 C-0.65 6.33 -2.3 6.66 -4 7 C-4 6.34 -4 5.68 -4 5 C-5.32 4.67 -6.64 4.34 -8 4 C-6.576875 3.566875 -6.576875 3.566875 -5.125 3.125 C-1.94788422 2.23174891 -1.94788422 2.23174891 0 0 Z " fill="#DDBC68" transform="translate(368,550)"/>
</svg>
